<!-- Generated by readme-aura https://github.com/collectioneur/readme-aura -->
<svg width="403" height="235" viewBox="0 0 403 235" xmlns="http://www.w3.org/2000/svg"><defs><clipPath id="satori_bc-id"><path x="0" y="0" width="403" height="235" d="M18,0 h367 a18,18 0 0 1 18,18 v199 a18,18 0 0 1 -18,18 h-367 a18,18 0 0 1 -18,-18 v-199 a18,18 0 0 1 18,-18"/></clipPath></defs><mask id="satori_om-id"><rect x="1" y="1" width="401" height="233" fill="#fff"/><path width="403" height="235" fill="none" stroke="#000" stroke-width="2" d="M5.272,5.272 A18,18 0 0 1 18,0 h367 a18,18 0 0 1 18,18 v199 a18,18 0 0 1 -18,18 h-367 a18,18 0 0 1 -18,-18 v-199 A18,18 0 0 1 5.272,5.272"/></mask><path x="0" y="0" width="403" height="235" fill="#1a1b26" d="M18,0 h367 a18,18 0 0 1 18,18 v199 a18,18 0 0 1 -18,18 h-367 a18,18 0 0 1 -18,-18 v-199 a18,18 0 0 1 18,-18"/><path width="403" height="235" clip-path="url(#satori_bc-id)" fill="none" stroke="#292e42" stroke-width="2" d="M5.272,5.272 A18,18 0 0 1 18,0 h367 a18,18 0 0 1 18,18 v199 a18,18 0 0 1 -18,18 h-367 a18,18 0 0 1 -18,-18 v-199 A18,18 0 0 1 5.272,5.272"/><mask id="satori_om-id-0"><rect x="23" y="21" width="357" height="16" fill="#fff"/></mask><defs><pattern id="satori_pattern_id-0-0_0" x="0" y="0" width="1" height="1" patternUnits="objectBoundingBox"><linearGradient id="satori_biid-0-0_0" x1="0" y1="0" x2="0" y2="1" spreadMethod="pad"><stop offset="0%" stop-color="#7aa2f7"/><stop offset="100%" stop-color="#ff9e64"/></linearGradient><rect x="0" y="0" width="4" height="16" fill="url(#satori_biid-0-0_0)"/></pattern></defs><mask id="satori_om-id-0-0"><rect x="23" y="21" width="4" height="16" fill="#fff"/></mask><path x="23" y="21" width="4" height="16" fill="url(#satori_pattern_id-0-0_0)" d="M25,21 h0 a2,2 0 0 1 2,2 v12 a2,2 0 0 1 -2,2 h0 a2,2 0 0 1 -2,-2 v-12 a2,2 0 0 1 2,-2"/><mask id="satori_om-id-0-1"><rect x="37" y="21" width="51" height="16" fill="#fff"/></mask><g  ><path fill="#c0caf5" d="M41.3 34.1L41.3 34.1Q40.2 34.1 39.3 33.8Q38.5 33.4 38.0 32.8Q37.6 32.1 37.5 31.1L37.5 31.1L39.4 31.1Q39.5 31.5 39.7 31.9Q40.0 32.2 40.4 32.3Q40.8 32.5 41.3 32.5L41.3 32.5Q41.8 32.5 42.2 32.4Q42.6 32.2 42.8 31.9Q43.0 31.7 43.0 31.3L43.0 31.3Q43.0 31.0 42.8 30.8Q42.6 30.5 42.3 30.4Q41.9 30.2 41.4 30.1L41.4 30.1L40.4 29.8Q39.2 29.5 38.5 28.9Q37.8 28.3 37.8 27.3L37.8 27.3Q37.8 26.4 38.3 25.8Q38.7 25.1 39.5 24.8Q40.3 24.4 41.3 24.4L41.3 24.4Q42.4 24.4 43.2 24.8Q44.0 25.1 44.4 25.8Q44.8 26.4 44.8 27.2L44.8 27.2L43.0 27.2Q42.9 26.7 42.5 26.4Q42.1 26.0 41.3 26.0L41.3 26.0Q40.8 26.0 40.5 26.2Q40.1 26.3 40.0 26.6Q39.8 26.8 39.8 27.1L39.8 27.1Q39.8 27.5 40.0 27.7Q40.2 28.0 40.5 28.1Q40.9 28.2 41.3 28.3L41.3 28.3L42.1 28.5Q42.7 28.7 43.3 28.9Q43.8 29.1 44.2 29.5Q44.5 29.8 44.8 30.3Q45.0 30.7 45.0 31.3L45.0 31.3Q45.0 32.2 44.5 32.8Q44.1 33.4 43.3 33.8Q42.5 34.1 41.3 34.1ZM50.1 26.1L47.2 26.1L47.2 24.5L54.9 24.5L54.9 26.1L52.0 26.1L52.0 34L50.1 34L50.1 26.1ZM59.0 34L56.9 34L60.1 24.5L62.7 24.5L66.0 34L63.8 34L63.1 31.8L59.7 31.8L59.0 34ZM60.2 30.3L62.6 30.3L62.3 29.4Q62.0 28.6 61.8 27.5L61.8 27.5Q61.6 26.8 61.4 26.1L61.4 26.1Q61.2 26.8 61.0 27.5L61.0 27.5Q60.8 28.6 60.5 29.4L60.5 29.4L60.2 30.3ZM70.9 26.1L68.0 26.1L68.0 24.5L75.7 24.5L75.7 26.1L72.8 26.1L72.8 34L70.9 34L70.9 26.1ZM81.7 34.1L81.7 34.1Q80.6 34.1 79.7 33.8Q78.9 33.4 78.4 32.8Q77.9 32.1 77.9 31.1L77.9 31.1L79.8 31.1Q79.8 31.5 80.1 31.9Q80.3 32.2 80.7 32.3Q81.2 32.5 81.7 32.5L81.7 32.5Q82.2 32.5 82.6 32.4Q83.0 32.2 83.2 31.9Q83.4 31.7 83.4 31.3L83.4 31.3Q83.4 31.0 83.2 30.8Q83.0 30.5 82.6 30.4Q82.3 30.2 81.8 30.1L81.8 30.1L80.7 29.8Q79.5 29.5 78.8 28.9Q78.2 28.3 78.2 27.3L78.2 27.3Q78.2 26.4 78.6 25.8Q79.1 25.1 79.9 24.8Q80.7 24.4 81.7 24.4L81.7 24.4Q82.8 24.4 83.5 24.8Q84.3 25.1 84.8 25.8Q85.2 26.4 85.2 27.2L85.2 27.2L83.3 27.2Q83.3 26.7 82.9 26.4Q82.4 26.0 81.7 26.0L81.7 26.0Q81.2 26.0 80.9 26.2Q80.5 26.3 80.3 26.6Q80.2 26.8 80.2 27.1L80.2 27.1Q80.2 27.5 80.4 27.7Q80.6 28.0 80.9 28.1Q81.3 28.2 81.7 28.3L81.7 28.3L82.5 28.5Q83.1 28.7 83.6 28.9Q84.1 29.1 84.5 29.5Q84.9 29.8 85.1 30.3Q85.3 30.7 85.3 31.3L85.3 31.3Q85.3 32.2 84.9 32.8Q84.5 33.4 83.7 33.8Q82.8 34.1 81.7 34.1Z "/></g><mask id="satori_om-id-1"><rect x="23" y="51" width="357" height="162" fill="#fff"/></mask><mask id="satori_om-id-1-0"><rect x="23" y="51" width="357" height="17" fill="#fff"/></mask><mask id="satori_om-id-1-0-0"><rect x="23" y="56" width="7" height="7" fill="#fff"/></mask><path x="23" y="56" width="7" height="7" fill="#e0af68" d="M26.5,56 h0 a3.5,3.5 0 0 1 3.5,3.5 v0 a3.5,3.5 0 0 1 -3.5,3.5 h0 a3.5,3.5 0 0 1 -3.5,-3.5 v0 a3.5,3.5 0 0 1 3.5,-3.5"/><mask id="satori_om-id-1-0-1"><rect x="40" y="52" width="323" height="16" fill="#fff"/></mask><g  ><path fill="#787c99" d="M44.2 65.2L44.2 65.2Q43.1 65.2 42.4 64.8Q41.6 64.5 41.2 63.9Q40.8 63.3 40.7 62.5L40.7 62.5L42.0 62.5Q42.0 63.1 42.3 63.4Q42.6 63.7 43.1 63.9Q43.6 64.1 44.2 64.1L44.2 64.1Q44.8 64.1 45.3 63.9Q45.8 63.7 46.1 63.3Q46.4 62.9 46.4 62.4L46.4 62.4Q46.4 61.9 46.2 61.7Q45.9 61.4 45.5 61.2Q45.1 61.0 44.6 60.9L44.6 60.9L43.4 60.5Q42.3 60.2 41.6 59.6Q41.0 59.0 41.0 58.1L41.0 58.1Q41.0 57.3 41.4 56.7Q41.9 56.1 42.6 55.7Q43.3 55.4 44.3 55.4L44.3 55.4Q45.2 55.4 45.9 55.7Q46.6 56.1 47.0 56.6Q47.5 57.2 47.5 57.9L47.5 57.9L46.3 57.9Q46.2 57.2 45.6 56.9Q45.1 56.5 44.2 56.5L44.2 56.5Q43.6 56.5 43.1 56.7Q42.7 56.9 42.4 57.2Q42.2 57.6 42.2 58.0L42.2 58.0Q42.2 58.5 42.5 58.8Q42.8 59.1 43.2 59.3Q43.6 59.5 44.0 59.5L44.0 59.5L44.9 59.8Q45.3 59.9 45.8 60.1Q46.2 60.3 46.6 60.6Q47.1 60.9 47.3 61.3Q47.6 61.8 47.6 62.4L47.6 62.4Q47.6 63.2 47.2 63.8Q46.8 64.4 46.0 64.8Q45.3 65.2 44.2 65.2ZM50.7 57.9L52.1 57.9L52.1 58.9L50.7 58.9L50.7 63.2Q50.7 63.6 50.9 63.9Q51.1 64.1 51.5 64.1L51.5 64.1Q51.6 64.1 51.8 64.0Q52.0 64.0 52.1 64.0L52.1 64.0L52.3 65.0Q52.2 65.0 51.9 65.1Q51.7 65.1 51.5 65.1L51.5 65.1Q50.6 65.1 50.0 64.6Q49.5 64.1 49.5 63.2L49.5 63.2L49.5 58.9L48.5 58.9L48.5 57.9L49.5 57.9L49.5 56.2L50.7 56.2L50.7 57.9ZM55.6 65.2L55.6 65.2Q54.9 65.2 54.4 64.9Q53.8 64.7 53.5 64.2Q53.2 63.7 53.2 63.0L53.2 63.0Q53.2 62.4 53.4 62.0Q53.6 61.6 54.1 61.4Q54.5 61.2 54.9 61.1Q55.4 61.0 55.9 60.9L55.9 60.9Q56.6 60.8 57.0 60.8Q57.4 60.7 57.6 60.6Q57.7 60.5 57.7 60.2L57.7 60.2L57.7 60.2Q57.7 59.8 57.6 59.5Q57.4 59.1 57.1 59.0Q56.8 58.8 56.3 58.8L56.3 58.8Q55.8 58.8 55.4 59.0Q55.0 59.1 54.8 59.4Q54.6 59.6 54.5 59.9L54.5 59.9L53.4 59.5Q53.6 58.8 54.1 58.5Q54.6 58.1 55.1 58.0Q55.7 57.8 56.2 57.8L56.2 57.8Q56.6 57.8 57.0 57.9Q57.5 58.0 57.9 58.2Q58.3 58.5 58.6 59.0Q58.9 59.5 58.9 60.3L58.9 60.3L58.9 65L57.8 65L57.8 64.0L57.7 64.0Q57.6 64.3 57.3 64.5Q57.0 64.8 56.6 65.0Q56.2 65.2 55.6 65.2ZM55.8 64.2L55.8 64.2Q56.4 64.2 56.9 63.9Q57.3 63.7 57.5 63.3Q57.7 62.9 57.7 62.4L57.7 62.4L57.7 61.5Q57.7 61.5 57.4 61.6Q57.2 61.7 56.9 61.7Q56.6 61.8 56.3 61.8Q56.0 61.8 55.9 61.9L55.9 61.9Q55.5 61.9 55.1 62.0Q54.7 62.2 54.5 62.4Q54.3 62.6 54.3 63.0L54.3 63.0Q54.3 63.4 54.5 63.7Q54.7 63.9 55.0 64.0Q55.4 64.2 55.8 64.2ZM62.0 65L60.9 65L60.9 57.9L62.0 57.9L62.0 59.0L62.1 59.0Q62.3 58.5 62.8 58.1Q63.3 57.8 63.9 57.8L63.9 57.8Q64.0 57.8 64.2 57.8Q64.4 57.8 64.5 57.8L64.5 57.8L64.5 59.0Q64.4 59.0 64.2 58.9Q64.0 58.9 63.8 58.9L63.8 58.9Q63.3 58.9 62.9 59.1Q62.5 59.3 62.3 59.7Q62.0 60.1 62.0 60.6L62.0 60.6L62.0 65ZM68.2 65.2L68.2 65.2Q67.5 65.2 66.9 64.9Q66.3 64.7 66.0 64.3Q65.6 63.9 65.5 63.3L65.5 63.3L66.6 63.0Q66.7 63.6 67.1 63.9Q67.6 64.1 68.2 64.1L68.2 64.1Q68.9 64.1 69.4 63.8Q69.8 63.5 69.8 63.1L69.8 63.1Q69.8 62.7 69.6 62.5Q69.3 62.2 68.8 62.1L68.8 62.1L67.6 61.8Q66.6 61.6 66.2 61.1Q65.7 60.6 65.7 59.9L65.7 59.9Q65.7 59.3 66.0 58.8Q66.4 58.3 67.0 58.1Q67.6 57.8 68.3 57.8L68.3 57.8Q69.0 57.8 69.6 58.0Q70.1 58.3 70.4 58.6Q70.7 59.0 70.9 59.5L70.9 59.5L69.8 59.8Q69.7 59.4 69.3 59.1Q69.0 58.8 68.3 58.8L68.3 58.8Q67.7 58.8 67.3 59.1Q66.8 59.4 66.8 59.8L66.8 59.8Q66.8 60.2 67.1 60.4Q67.4 60.7 68.0 60.8L68.0 60.8L69.1 61.1Q70.1 61.3 70.5 61.8Q71.0 62.3 71.0 63.0L71.0 63.0Q71.0 63.6 70.6 64.1Q70.3 64.6 69.7 64.9Q69.0 65.2 68.2 65.2Z M79.3 65.2L79.3 65.2Q78.3 65.2 77.5 64.7Q76.8 64.2 76.4 63.4Q76.0 62.6 76.0 61.5Q76.0 60.4 76.4 59.6Q76.8 58.8 77.5 58.3Q78.2 57.8 79.2 57.8L79.2 57.8Q79.7 57.8 80.3 58.0Q80.8 58.2 81.3 58.6Q81.7 59.0 82.0 59.7Q82.3 60.4 82.3 61.4L82.3 61.4L82.3 61.8L77.1 61.8Q77.1 62.5 77.4 63.0L77.4 63.0Q77.7 63.6 78.2 63.9Q78.7 64.1 79.3 64.1L79.3 64.1Q79.7 64.1 80.1 64.0Q80.4 63.9 80.7 63.7Q80.9 63.4 81.0 63.0L81.0 63.0L82.1 63.3Q82.0 63.9 81.6 64.3Q81.2 64.7 80.6 64.9Q80.0 65.2 79.3 65.2ZM77.1 60.9L77.1 60.9L81.1 60.9Q81.0 60.4 80.9 60.0L80.9 60.0Q80.7 59.4 80.2 59.1Q79.8 58.8 79.2 58.8Q78.5 58.8 78.1 59.1Q77.6 59.5 77.4 60.0L77.4 60.0Q77.2 60.4 77.1 60.9ZM85.9 65.2L85.9 65.2Q85.2 65.2 84.7 64.9Q84.1 64.7 83.8 64.2Q83.5 63.7 83.5 63.0L83.5 63.0Q83.5 62.4 83.7 62.0Q83.9 61.6 84.3 61.4Q84.7 61.2 85.2 61.1Q85.7 61.0 86.2 60.9L86.2 60.9Q86.9 60.8 87.3 60.8Q87.7 60.7 87.8 60.6Q88.0 60.5 88.0 60.2L88.0 60.2L88.0 60.2Q88.0 59.8 87.9 59.5Q87.7 59.1 87.4 59.0Q87.0 58.8 86.6 58.8L86.6 58.8Q86.0 58.8 85.7 59.0Q85.3 59.1 85.1 59.4Q84.9 59.6 84.8 59.9L84.8 59.9L83.7 59.5Q83.9 58.8 84.4 58.5Q84.9 58.1 85.4 58.0Q86.0 57.8 86.5 57.8L86.5 57.8Q86.9 57.8 87.3 57.9Q87.8 58.0 88.2 58.2Q88.6 58.5 88.9 59.0Q89.2 59.5 89.2 60.3L89.2 60.3L89.2 65L88.1 65L88.1 64.0L88.0 64.0Q87.9 64.3 87.6 64.5Q87.3 64.8 86.9 65.0Q86.5 65.2 85.9 65.2ZM86.1 64.2L86.1 64.2Q86.7 64.2 87.1 63.9Q87.6 63.7 87.8 63.3Q88.0 62.9 88.0 62.4L88.0 62.4L88.0 61.5Q88.0 61.5 87.7 61.6Q87.5 61.7 87.2 61.7Q86.9 61.8 86.6 61.8Q86.3 61.8 86.2 61.9L86.2 61.9Q85.8 61.9 85.4 62.0Q85.0 62.2 84.8 62.4Q84.6 62.6 84.6 63.0L84.6 63.0Q84.6 63.4 84.8 63.7Q85.0 63.9 85.3 64.0Q85.6 64.2 86.1 64.2ZM92.3 65L91.2 65L91.2 57.9L92.3 57.9L92.3 59.0L92.4 59.0Q92.6 58.5 93.1 58.1Q93.6 57.8 94.2 57.8L94.2 57.8Q94.3 57.8 94.5 57.8Q94.7 57.8 94.8 57.8L94.8 57.8L94.8 59.0Q94.7 59.0 94.5 58.9Q94.3 58.9 94.1 58.9L94.1 58.9Q93.6 58.9 93.2 59.1Q92.8 59.3 92.6 59.7Q92.3 60.1 92.3 60.6L92.3 60.6L92.3 65ZM97.2 60.7L97.2 60.7L97.2 65L96.1 65L96.1 57.9L97.2 57.9L97.2 59.2Q97.5 58.6 98.0 58.2L98.0 58.2Q98.6 57.8 99.4 57.8L99.4 57.8Q100.1 57.8 100.6 58.1Q101.2 58.4 101.5 59.0Q101.8 59.6 101.8 60.5L101.8 60.5L101.8 65L100.6 65L100.6 60.6Q100.6 59.8 100.2 59.3Q99.8 58.8 99.0 58.8L99.0 58.8Q98.5 58.8 98.1 59.1Q97.7 59.3 97.5 59.7Q97.2 60.1 97.2 60.7ZM106.7 65.2L106.7 65.2Q105.7 65.2 105.0 64.7Q104.2 64.2 103.8 63.4Q103.4 62.6 103.4 61.5Q103.4 60.4 103.8 59.6Q104.2 58.8 104.9 58.3Q105.6 57.8 106.6 57.8L106.6 57.8Q107.2 57.8 107.7 58.0Q108.3 58.2 108.7 58.6Q109.2 59.0 109.4 59.7Q109.7 60.4 109.7 61.4L109.7 61.4L109.7 61.8L104.6 61.8Q104.6 62.5 104.8 63.0L104.8 63.0Q105.1 63.6 105.6 63.9Q106.1 64.1 106.8 64.1L106.8 64.1Q107.2 64.1 107.5 64.0Q107.9 63.9 108.1 63.7Q108.4 63.4 108.5 63.0L108.5 63.0L109.6 63.3Q109.4 63.9 109.0 64.3Q108.6 64.7 108.1 64.9Q107.5 65.2 106.7 65.2ZM104.6 60.9L104.6 60.9L108.5 60.9Q108.5 60.4 108.3 60.0L108.3 60.0Q108.1 59.4 107.7 59.1Q107.3 58.8 106.6 58.8Q106.0 58.8 105.5 59.1Q105.1 59.5 104.8 60.0L104.8 60.0Q104.6 60.4 104.6 60.9ZM114.0 65.2L114.0 65.2Q113.1 65.2 112.4 64.7Q111.8 64.3 111.4 63.4Q111.0 62.6 111.0 61.5L111.0 61.5Q111.0 60.3 111.4 59.5Q111.8 58.7 112.4 58.3Q113.1 57.8 114.0 57.8L114.0 57.8Q114.7 57.8 115.1 58.0Q115.5 58.3 115.7 58.6Q115.9 58.8 116.1 59.0L116.1 59.0L116.2 59.0L116.2 55.5L117.3 55.5L117.3 65L116.2 65L116.2 63.9L116.1 63.9Q115.9 64.1 115.7 64.4Q115.5 64.7 115.1 64.9Q114.7 65.2 114.0 65.2ZM114.2 64.1L114.2 64.1Q114.8 64.1 115.3 63.8Q115.7 63.5 115.9 62.8Q116.2 62.2 116.2 61.5L116.2 61.5Q116.2 60.7 115.9 60.1Q115.7 59.5 115.3 59.2Q114.8 58.8 114.2 58.8L114.2 58.8Q113.5 58.8 113.1 59.2Q112.6 59.5 112.4 60.1Q112.2 60.7 112.2 61.5L112.2 61.5Q112.2 62.2 112.4 62.8Q112.6 63.4 113.1 63.8Q113.5 64.1 114.2 64.1Z "/></g><mask id="satori_om-id-1-0-2"><rect x="373" y="51" width="7" height="17" fill="#fff"/></mask><g  ><path fill="#e0af68" d="M375.9 54.8L378.1 54.8L378.1 65L376.0 65L376.0 56.7L376.0 56.7L373.6 58.3L373.6 56.4L375.9 54.8Z "/></g><mask id="satori_om-id-1-1"><rect x="23" y="80" width="357" height="17" fill="#fff"/></mask><mask id="satori_om-id-1-1-0"><rect x="23" y="85" width="7" height="7" fill="#fff"/></mask><path x="23" y="85" width="7" height="7" fill="#9ece6a" d="M26.5,85 h0 a3.5,3.5 0 0 1 3.5,3.5 v0 a3.5,3.5 0 0 1 -3.5,3.5 h0 a3.5,3.5 0 0 1 -3.5,-3.5 v0 a3.5,3.5 0 0 1 3.5,-3.5"/><mask id="satori_om-id-1-1-1"><rect x="40" y="81" width="293" height="16" fill="#fff"/></mask><g  ><path fill="#787c99" d="M42.3 94L41.1 94L41.1 84.5L42.9 84.5L45.2 90.5Q45.3 90.7 45.4 91.0Q45.5 91.3 45.6 91.7Q45.7 92.1 45.8 92.4L45.8 92.4Q45.9 92.6 45.9 92.7L45.9 92.7Q45.9 92.6 45.9 92.5L45.9 92.5Q46.0 92.1 46.2 91.7Q46.3 91.4 46.4 91.0Q46.5 90.7 46.6 90.5L46.6 90.5L48.9 84.5L50.6 84.5L50.6 94L49.4 94L49.4 88.6Q49.4 88.3 49.4 87.9Q49.4 87.6 49.4 87.1Q49.4 86.7 49.5 86.3L49.5 86.3Q49.5 86.1 49.5 85.8L49.5 85.8Q49.4 86.1 49.3 86.4L49.3 86.4Q49.1 86.8 49.0 87.2Q48.8 87.7 48.7 88.0Q48.6 88.4 48.5 88.6L48.5 88.6L46.4 94L45.3 94L43.2 88.6Q43.1 88.4 43.0 88.0Q42.9 87.7 42.7 87.3Q42.6 86.9 42.4 86.4L42.4 86.4Q42.3 86.1 42.2 85.8L42.2 85.8Q42.3 86.0 42.3 86.2L42.3 86.2Q42.3 86.7 42.3 87.1Q42.3 87.5 42.3 87.9Q42.3 88.3 42.3 88.6L42.3 88.6L42.3 94ZM55.7 94.2L55.7 94.2Q54.7 94.2 54.0 93.7Q53.2 93.2 52.8 92.4Q52.4 91.6 52.4 90.5Q52.4 89.4 52.8 88.6Q53.2 87.8 53.9 87.3Q54.6 86.8 55.6 86.8L55.6 86.8Q56.2 86.8 56.7 87.0Q57.3 87.2 57.7 87.6Q58.2 88.0 58.4 88.7Q58.7 89.4 58.7 90.4L58.7 90.4L58.7 90.8L53.6 90.8Q53.6 91.5 53.8 92.0L53.8 92.0Q54.1 92.6 54.6 92.9Q55.1 93.1 55.7 93.1L55.7 93.1Q56.2 93.1 56.5 93.0Q56.8 92.9 57.1 92.7Q57.3 92.4 57.5 92.0L57.5 92.0L58.6 92.3Q58.4 92.9 58.0 93.3Q57.6 93.7 57.0 93.9Q56.5 94.2 55.7 94.2ZM53.6 89.9L53.6 89.9L57.5 89.9Q57.5 89.4 57.3 89.0L57.3 89.0Q57.1 88.4 56.7 88.1Q56.2 87.8 55.6 87.8Q55.0 87.8 54.5 88.1Q54.0 88.5 53.8 89.0L53.8 89.0Q53.6 89.4 53.6 89.9ZM61.5 94L60.3 94L60.3 86.9L61.4 86.9L61.4 88.2Q61.6 87.8 61.8 87.5L61.8 87.5Q62.1 87.2 62.6 87.0Q63.0 86.8 63.4 86.8L63.4 86.8Q64.2 86.8 64.7 87.3L64.7 87.3Q65.1 87.6 65.2 88.2L65.2 88.2Q65.4 87.9 65.6 87.6L65.6 87.6Q65.9 87.2 66.4 87.0Q66.9 86.8 67.5 86.8L67.5 86.8Q68.1 86.8 68.6 87.0Q69.1 87.3 69.4 87.8Q69.7 88.4 69.7 89.2L69.7 89.2L69.7 94L68.6 94L68.6 89.2Q68.6 88.5 68.1 88.1Q67.7 87.8 67.1 87.8L67.1 87.8Q66.7 87.8 66.3 88.0Q66.0 88.2 65.8 88.6Q65.6 88.9 65.6 89.4L65.6 89.4L65.6 94L64.4 94L64.4 89.1Q64.4 88.5 64.1 88.2Q63.7 87.8 63.1 87.8L63.1 87.8Q62.6 87.8 62.3 88.0Q61.9 88.2 61.7 88.6Q61.5 89.0 61.5 89.5L61.5 89.5L61.5 94ZM75.0 94.2L75.0 94.2Q74.3 94.2 73.9 93.9Q73.5 93.7 73.3 93.4Q73.1 93.1 72.9 92.9L72.9 92.9L72.8 92.9L72.8 94L71.7 94L71.7 84.5L72.9 84.5L72.9 88.0L72.9 88.0Q73.1 87.8 73.3 87.6Q73.5 87.3 73.9 87.0Q74.3 86.8 75.0 86.8L75.0 86.8Q75.9 86.8 76.6 87.3Q77.2 87.7 77.6 88.5Q78.0 89.3 78.0 90.5L78.0 90.5Q78.0 91.6 77.6 92.4Q77.2 93.3 76.6 93.7Q75.9 94.2 75.0 94.2ZM74.8 93.1L74.8 93.1Q75.5 93.1 75.9 92.8Q76.4 92.4 76.6 91.8Q76.8 91.2 76.8 90.5L76.8 90.5Q76.8 89.7 76.6 89.1Q76.4 88.5 76.0 88.2Q75.5 87.8 74.8 87.8L74.8 87.8Q74.2 87.8 73.7 88.2Q73.3 88.5 73.1 89.1Q72.8 89.7 72.8 90.5L72.8 90.5Q72.8 91.2 73.1 91.8Q73.3 92.5 73.7 92.8Q74.2 93.1 74.8 93.1ZM82.7 94.2L82.7 94.2Q81.6 94.2 80.9 93.7Q80.1 93.2 79.7 92.4Q79.3 91.6 79.3 90.5Q79.3 89.4 79.7 88.6Q80.1 87.8 80.8 87.3Q81.6 86.8 82.5 86.8L82.5 86.8Q83.1 86.8 83.6 87.0Q84.2 87.2 84.6 87.6Q85.1 88.0 85.3 88.7Q85.6 89.4 85.6 90.4L85.6 90.4L85.6 90.8L80.5 90.8Q80.5 91.5 80.8 92.0L80.8 92.0Q81.0 92.6 81.5 92.9Q82.0 93.1 82.7 93.1L82.7 93.1Q83.1 93.1 83.4 93.0Q83.8 92.9 84.0 92.7Q84.3 92.4 84.4 92.0L84.4 92.0L85.5 92.3Q85.3 92.9 84.9 93.3Q84.5 93.7 84.0 93.9Q83.4 94.2 82.7 94.2ZM80.5 89.9L80.5 89.9L84.5 89.9Q84.4 89.4 84.2 89.0L84.2 89.0Q84.0 88.4 83.6 88.1Q83.2 87.8 82.5 87.8Q81.9 87.8 81.4 88.1Q81.0 88.5 80.7 89.0L80.7 89.0Q80.5 89.4 80.5 89.9ZM88.4 94L87.3 94L87.3 86.9L88.4 86.9L88.4 88.0L88.4 88.0Q88.6 87.5 89.1 87.1Q89.6 86.8 90.3 86.8L90.3 86.8Q90.4 86.8 90.6 86.8Q90.7 86.8 90.9 86.8L90.9 86.8L90.9 88.0Q90.8 88.0 90.6 87.9Q90.4 87.9 90.2 87.9L90.2 87.9Q89.7 87.9 89.3 88.1Q88.9 88.3 88.6 88.7Q88.4 89.1 88.4 89.6L88.4 89.6L88.4 94Z M98.2 94.2L98.2 94.2Q97.5 94.2 96.9 93.9Q96.3 93.7 96.0 93.3Q95.6 92.9 95.5 92.3L95.5 92.3L96.6 92.0Q96.7 92.6 97.1 92.9Q97.6 93.1 98.2 93.1L98.2 93.1Q98.9 93.1 99.4 92.8Q99.8 92.5 99.8 92.1L99.8 92.1Q99.8 91.7 99.6 91.5Q99.3 91.2 98.8 91.1L98.8 91.1L97.6 90.8Q96.6 90.6 96.2 90.1Q95.7 89.6 95.7 88.9L95.7 88.9Q95.7 88.3 96.0 87.8Q96.4 87.3 97.0 87.1Q97.6 86.8 98.3 86.8L98.3 86.8Q99.1 86.8 99.6 87.0Q100.1 87.3 100.4 87.6Q100.7 88.0 100.9 88.5L100.9 88.5L99.8 88.8Q99.7 88.4 99.4 88.1Q99.0 87.8 98.3 87.8L98.3 87.8Q97.7 87.8 97.3 88.1Q96.9 88.4 96.9 88.8L96.9 88.8Q96.9 89.2 97.1 89.4Q97.4 89.7 98.0 89.8L98.0 89.8L99.1 90.1Q100.1 90.3 100.6 90.8Q101.0 91.3 101.0 92.0L101.0 92.0Q101.0 92.6 100.7 93.1Q100.3 93.6 99.7 93.9Q99.0 94.2 98.2 94.2ZM103.8 94L102.7 94L102.7 86.9L103.8 86.9L103.8 94ZM103.2 85.7L103.2 85.7Q102.9 85.7 102.7 85.5Q102.4 85.3 102.4 85.0L102.4 85.0Q102.4 84.7 102.7 84.4Q102.9 84.2 103.2 84.2L103.2 84.2Q103.6 84.2 103.8 84.4Q104.0 84.7 104.0 85.0L104.0 85.0Q104.0 85.3 103.8 85.5Q103.6 85.7 103.2 85.7ZM107.0 89.7L107.0 89.7L107.0 94L105.8 94L105.8 86.9L106.9 86.9L106.9 88.2Q107.2 87.6 107.7 87.2L107.7 87.2Q108.3 86.8 109.1 86.8L109.1 86.8Q109.8 86.8 110.3 87.1Q110.9 87.4 111.2 88.0Q111.5 88.6 111.5 89.5L111.5 89.5L111.5 94L110.3 94L110.3 89.6Q110.3 88.8 109.9 88.3Q109.5 87.8 108.7 87.8L108.7 87.8Q108.2 87.8 107.8 88.1Q107.4 88.3 107.2 88.7Q107.0 89.1 107.0 89.7ZM116.4 94.2L116.4 94.2Q115.4 94.2 114.7 93.7Q114.0 93.2 113.6 92.4Q113.2 91.6 113.2 90.5L113.2 90.5Q113.2 89.4 113.6 88.6Q114.0 87.7 114.7 87.3Q115.4 86.8 116.4 86.8L116.4 86.8Q116.9 86.8 117.4 86.9Q117.8 87.1 118.2 87.3Q118.6 87.6 118.8 87.9Q119.1 88.3 119.3 88.8L119.3 88.8L118.2 89.1Q118.1 88.8 117.9 88.6Q117.8 88.4 117.5 88.2Q117.3 88.0 117.0 87.9Q116.7 87.8 116.4 87.8L116.4 87.8Q115.7 87.8 115.2 88.2Q114.8 88.6 114.5 89.2Q114.3 89.8 114.3 90.5L114.3 90.5Q114.3 91.2 114.5 91.8Q114.8 92.4 115.2 92.8Q115.7 93.1 116.4 93.1L116.4 93.1Q116.7 93.1 117.0 93.0Q117.3 92.9 117.6 92.8Q117.8 92.6 118.0 92.3Q118.1 92.1 118.2 91.8L118.2 91.8L119.3 92.1Q119.1 92.6 118.9 93.0Q118.6 93.4 118.2 93.6Q117.8 93.9 117.4 94.0Q116.9 94.2 116.4 94.2ZM123.9 94.2L123.9 94.2Q122.9 94.2 122.1 93.7Q121.4 93.2 121.0 92.4Q120.6 91.6 120.6 90.5Q120.6 89.4 121.0 88.6Q121.4 87.8 122.1 87.3Q122.8 86.8 123.8 86.8L123.8 86.8Q124.3 86.8 124.9 87.0Q125.4 87.2 125.9 87.6Q126.3 88.0 126.6 88.7Q126.9 89.4 126.9 90.4L126.9 90.4L126.9 90.8L121.7 90.8Q121.8 91.5 122.0 92.0L122.0 92.0Q122.3 92.6 122.8 92.9Q123.3 93.1 123.9 93.1L123.9 93.1Q124.3 93.1 124.7 93.0Q125.0 92.9 125.3 92.7Q125.5 92.4 125.6 92.0L125.6 92.0L126.7 92.3Q126.6 92.9 126.2 93.3Q125.8 93.7 125.2 93.9Q124.6 94.2 123.9 94.2ZM121.7 89.9L121.7 89.9L125.7 89.9Q125.7 89.4 125.5 89.0L125.5 89.0Q125.3 88.4 124.8 88.1Q124.4 87.8 123.8 87.8Q123.1 87.8 122.7 88.1Q122.2 88.5 122.0 89.0L122.0 89.0Q121.8 89.4 121.7 89.9Z "/></g><mask id="satori_om-id-1-1-2"><rect x="343" y="80" width="37" height="17" fill="#fff"/></mask><g  ><path fill="#9ece6a" d="M351.1 94L343.8 94L343.8 92.5L347.5 89.1Q347.9 88.7 348.2 88.3Q348.6 87.9 348.7 87.6Q348.9 87.2 348.9 86.8L348.9 86.8Q348.9 86.4 348.7 86.0Q348.5 85.7 348.1 85.5Q347.8 85.3 347.3 85.3L347.3 85.3Q346.8 85.3 346.5 85.5Q346.1 85.7 345.9 86.1Q345.7 86.4 345.7 86.9L345.7 86.9L343.8 86.9Q343.8 85.9 344.2 85.2Q344.7 84.5 345.5 84.1Q346.3 83.7 347.3 83.7L347.3 83.7Q348.4 83.7 349.2 84.1Q350.0 84.5 350.5 85.1Q350.9 85.8 350.9 86.7L350.9 86.7Q350.9 87.3 350.7 87.8Q350.5 88.4 349.9 89.0Q349.3 89.7 348.3 90.7L348.3 90.7L346.7 92.2L346.7 92.3L351.1 92.3L351.1 94ZM356.5 94.1L356.5 94.1Q355.3 94.1 354.3 93.5Q353.4 92.9 352.9 91.7Q352.5 90.6 352.5 88.9L352.5 88.9Q352.5 87.3 352.9 86.1Q353.4 84.9 354.3 84.3Q355.3 83.7 356.5 83.7L356.5 83.7Q357.8 83.7 358.7 84.3Q359.6 84.9 360.1 86.1Q360.6 87.3 360.6 88.9L360.6 88.9Q360.6 90.6 360.1 91.7Q359.7 92.9 358.7 93.5Q357.8 94.1 356.5 94.1ZM356.5 92.4L356.5 92.4Q357.2 92.4 357.6 92.0Q358.0 91.6 358.3 90.8Q358.5 90.0 358.5 88.9L358.5 88.9Q358.5 87.8 358.3 87.0Q358.0 86.2 357.6 85.8Q357.2 85.4 356.5 85.4L356.5 85.4Q355.9 85.4 355.5 85.8Q355.0 86.2 354.8 87.0Q354.6 87.8 354.6 88.9L354.6 88.9Q354.6 90.0 354.8 90.8Q355.0 91.6 355.5 92.0Q355.9 92.4 356.5 92.4ZM369.3 94L362.1 94L362.1 92.5L365.7 89.1Q366.2 88.7 366.5 88.3Q366.8 87.9 367.0 87.6Q367.2 87.2 367.2 86.8L367.2 86.8Q367.2 86.4 366.9 86.0Q366.7 85.7 366.4 85.5Q366.0 85.3 365.6 85.3L365.6 85.3Q365.1 85.3 364.7 85.5Q364.4 85.7 364.2 86.1Q364.0 86.4 364.0 86.9L364.0 86.9L362.0 86.9Q362.0 85.9 362.5 85.2Q362.9 84.5 363.7 84.1Q364.5 83.7 365.6 83.7L365.6 83.7Q366.7 83.7 367.5 84.1Q368.3 84.5 368.7 85.1Q369.2 85.8 369.2 86.7L369.2 86.7Q369.2 87.3 369.0 87.8Q368.7 88.4 368.2 89.0Q367.6 89.7 366.5 90.7L366.5 90.7L365.0 92.2L365.0 92.3L369.3 92.3L369.3 94ZM375.4 92.2L370.5 92.2L370.5 90.5L374.8 83.8L377.4 83.8L377.4 90.5L378.7 90.5L378.7 92.2L377.4 92.2L377.4 94L375.4 94L375.4 92.2ZM372.7 90.5L375.5 90.5L375.5 86.1L375.4 86.1L372.7 90.4L372.7 90.5Z "/></g><mask id="satori_om-id-1-2"><rect x="23" y="109" width="357" height="17" fill="#fff"/></mask><mask id="satori_om-id-1-2-0"><rect x="23" y="114" width="7" height="7" fill="#fff"/></mask><path x="23" y="114" width="7" height="7" fill="#7aa2f7" d="M26.5,114 h0 a3.5,3.5 0 0 1 3.5,3.5 v0 a3.5,3.5 0 0 1 -3.5,3.5 h0 a3.5,3.5 0 0 1 -3.5,-3.5 v0 a3.5,3.5 0 0 1 3.5,-3.5"/><mask id="satori_om-id-1-2-1"><rect x="40" y="110" width="314" height="16" fill="#fff"/></mask><g  ><path fill="#787c99" d="M42.3 123L41.1 123L41.1 113.5L44.4 113.5Q45.5 113.5 46.2 113.9Q46.9 114.3 47.3 115.0Q47.6 115.6 47.6 116.5Q47.6 117.3 47.3 118.0Q46.9 118.6 46.2 119.0L46.2 119.0Q46.0 119.1 45.9 119.1L45.9 119.1L48.0 123L46.6 123L44.6 119.3Q44.5 119.3 44.4 119.3L44.4 119.3L42.3 119.3L42.3 123ZM42.3 114.6L42.3 118.3L44.3 118.3Q45.1 118.3 45.5 118.0Q46.0 117.8 46.2 117.4Q46.4 117.0 46.4 116.5L46.4 116.5Q46.4 115.9 46.2 115.5Q46.0 115.1 45.5 114.8Q45.1 114.6 44.3 114.6L44.3 114.6L42.3 114.6ZM52.4 123.2L52.4 123.2Q51.3 123.2 50.6 122.7Q49.8 122.2 49.4 121.4Q49.0 120.6 49.0 119.5Q49.0 118.4 49.4 117.6Q49.8 116.8 50.5 116.3Q51.3 115.8 52.2 115.8L52.2 115.8Q52.8 115.8 53.3 116.0Q53.9 116.2 54.3 116.6Q54.8 117.0 55.0 117.7Q55.3 118.4 55.3 119.4L55.3 119.4L55.3 119.8L50.2 119.8Q50.2 120.5 50.5 121.0L50.5 121.0Q50.7 121.6 51.2 121.9Q51.7 122.1 52.4 122.1L52.4 122.1Q52.8 122.1 53.1 122.0Q53.5 121.9 53.7 121.7Q54.0 121.4 54.1 121.0L54.1 121.0L55.2 121.3Q55.0 121.9 54.6 122.3Q54.2 122.7 53.7 122.9Q53.1 123.2 52.4 123.2ZM50.2 118.9L50.2 118.9L54.1 118.9Q54.1 118.4 53.9 118.0L53.9 118.0Q53.7 117.4 53.3 117.1Q52.9 116.8 52.2 116.8Q51.6 116.8 51.1 117.1Q50.7 117.5 50.4 118.0L50.4 118.0Q50.2 118.4 50.2 118.9ZM58.1 125.7L56.9 125.7L56.9 115.9L58.1 115.9L58.1 117.0L58.2 117.0Q58.3 116.8 58.5 116.6Q58.7 116.3 59.1 116.0Q59.5 115.8 60.2 115.8L60.2 115.8Q61.1 115.8 61.8 116.3Q62.5 116.7 62.9 117.5Q63.2 118.3 63.2 119.5L63.2 119.5Q63.2 120.6 62.9 121.4Q62.5 122.3 61.8 122.7Q61.1 123.2 60.2 123.2L60.2 123.2Q59.6 123.2 59.2 122.9Q58.7 122.7 58.5 122.4Q58.3 122.1 58.2 121.9L58.2 121.9L58.1 121.9L58.1 125.7ZM60.1 122.1L60.1 122.1Q60.7 122.1 61.2 121.8Q61.6 121.4 61.9 120.8Q62.1 120.2 62.1 119.5L62.1 119.5Q62.1 118.7 61.9 118.1Q61.6 117.5 61.2 117.2Q60.7 116.8 60.1 116.8L60.1 116.8Q59.4 116.8 59.0 117.2Q58.5 117.5 58.3 118.1Q58.1 118.7 58.1 119.5L58.1 119.5Q58.1 120.2 58.3 120.8Q58.5 121.5 59.0 121.8Q59.4 122.1 60.1 122.1ZM67.8 123.2L67.8 123.2Q66.8 123.2 66.1 122.7Q65.4 122.2 65.0 121.4Q64.6 120.6 64.6 119.5L64.6 119.5Q64.6 118.4 65.0 117.6Q65.4 116.7 66.1 116.3Q66.8 115.8 67.8 115.8L67.8 115.8Q68.8 115.8 69.5 116.3Q70.2 116.7 70.6 117.6Q71.0 118.4 71.0 119.5L71.0 119.5Q71.0 120.6 70.6 121.4Q70.2 122.2 69.5 122.7Q68.8 123.2 67.8 123.2ZM67.8 122.1L67.8 122.1Q68.5 122.1 69.0 121.8Q69.4 121.4 69.7 120.8Q69.9 120.2 69.9 119.5L69.9 119.5Q69.9 118.8 69.7 118.2Q69.4 117.6 69.0 117.2Q68.5 116.8 67.8 116.8L67.8 116.8Q67.1 116.8 66.6 117.2Q66.2 117.6 65.9 118.2Q65.7 118.8 65.7 119.5L65.7 119.5Q65.7 120.2 65.9 120.8Q66.2 121.4 66.6 121.8Q67.1 122.1 67.8 122.1ZM75.1 123.2L75.1 123.2Q74.4 123.2 73.8 122.9Q73.2 122.7 72.9 122.3Q72.5 121.9 72.4 121.3L72.4 121.3L73.5 121.0Q73.6 121.6 74.0 121.9Q74.5 122.1 75.1 122.1L75.1 122.1Q75.8 122.1 76.3 121.8Q76.7 121.5 76.7 121.1L76.7 121.1Q76.7 120.7 76.5 120.5Q76.2 120.2 75.7 120.1L75.7 120.1L74.5 119.8Q73.5 119.6 73.1 119.1Q72.6 118.6 72.6 117.9L72.6 117.9Q72.6 117.3 72.9 116.8Q73.3 116.3 73.9 116.1Q74.5 115.8 75.2 115.8L75.2 115.8Q76.0 115.8 76.5 116.0Q77.0 116.3 77.3 116.6Q77.6 117.0 77.8 117.5L77.8 117.5L76.7 117.8Q76.6 117.4 76.3 117.1Q75.9 116.8 75.2 116.8L75.2 116.8Q74.6 116.8 74.2 117.1Q73.8 117.4 73.8 117.8L73.8 117.8Q73.8 118.2 74.0 118.4Q74.3 118.7 75.0 118.8L75.0 118.8L76.0 119.1Q77.0 119.3 77.5 119.8Q77.9 120.3 77.9 121.0L77.9 121.0Q77.9 121.6 77.6 122.1Q77.2 122.6 76.6 122.9Q75.9 123.2 75.1 123.2ZM80.7 123L79.6 123L79.6 115.9L80.7 115.9L80.7 123ZM80.1 114.7L80.1 114.7Q79.8 114.7 79.6 114.5Q79.3 114.3 79.3 114.0L79.3 114.0Q79.3 113.7 79.6 113.4Q79.8 113.2 80.1 113.2L80.1 113.2Q80.5 113.2 80.7 113.4Q80.9 113.7 80.9 114.0L80.9 114.0Q80.9 114.3 80.7 114.5Q80.5 114.7 80.1 114.7ZM84.0 115.9L85.5 115.9L85.5 116.9L84.0 116.9L84.0 121.2Q84.0 121.6 84.2 121.9Q84.4 122.1 84.9 122.1L84.9 122.1Q85.0 122.1 85.2 122.0Q85.3 122.0 85.5 122.0L85.5 122.0L85.7 123.0Q85.5 123.0 85.3 123.1Q85.1 123.1 84.9 123.1L84.9 123.1Q83.9 123.1 83.4 122.6Q82.9 122.1 82.9 121.2L82.9 121.2L82.9 116.9L81.8 116.9L81.8 115.9L82.9 115.9L82.9 114.2L84.0 114.2L84.0 115.9ZM89.9 123.2L89.9 123.2Q88.9 123.2 88.2 122.7Q87.4 122.2 87.0 121.4Q86.6 120.6 86.6 119.5L86.6 119.5Q86.6 118.4 87.0 117.6Q87.4 116.7 88.2 116.3Q88.9 115.8 89.9 115.8L89.9 115.8Q90.8 115.8 91.6 116.3Q92.3 116.7 92.7 117.6Q93.1 118.4 93.1 119.5L93.1 119.5Q93.1 120.6 92.7 121.4Q92.3 122.2 91.6 122.7Q90.8 123.2 89.9 123.2ZM89.9 122.1L89.9 122.1Q90.6 122.1 91.0 121.8Q91.5 121.4 91.7 120.8Q91.9 120.2 91.9 119.5L91.9 119.5Q91.9 118.8 91.7 118.2Q91.5 117.6 91.0 117.2Q90.6 116.8 89.9 116.8L89.9 116.8Q89.1 116.8 88.7 117.2Q88.2 117.6 88.0 118.2Q87.8 118.8 87.8 119.5L87.8 119.5Q87.8 120.2 88.0 120.8Q88.2 121.4 88.7 121.8Q89.1 122.1 89.9 122.1ZM95.9 123L94.8 123L94.8 115.9L95.9 115.9L95.9 117.0L95.9 117.0Q96.1 116.5 96.6 116.1Q97.1 115.8 97.8 115.8L97.8 115.8Q97.9 115.8 98.1 115.8Q98.3 115.8 98.4 115.8L98.4 115.8L98.4 117.0Q98.3 117.0 98.1 116.9Q97.9 116.9 97.7 116.9L97.7 116.9Q97.2 116.9 96.8 117.1Q96.4 117.3 96.1 117.7Q95.9 118.1 95.9 118.6L95.9 118.6L95.9 123ZM100.8 123L99.7 123L99.7 115.9L100.8 115.9L100.8 123ZM100.2 114.7L100.2 114.7Q99.9 114.7 99.7 114.5Q99.4 114.3 99.4 114.0L99.4 114.0Q99.4 113.7 99.7 113.4Q99.9 113.2 100.2 113.2L100.2 113.2Q100.6 113.2 100.8 113.4Q101.0 113.7 101.0 114.0L101.0 114.0Q101.0 114.3 100.8 114.5Q100.6 114.7 100.2 114.7ZM105.8 123.2L105.8 123.2Q104.8 123.2 104.0 122.7Q103.3 122.2 102.9 121.4Q102.5 120.6 102.5 119.5Q102.5 118.4 102.9 117.6Q103.2 116.8 104.0 116.3Q104.7 115.8 105.7 115.8L105.7 115.8Q106.2 115.8 106.8 116.0Q107.3 116.2 107.8 116.6Q108.2 117.0 108.5 117.7Q108.7 118.4 108.7 119.4L108.7 119.4L108.7 119.8L103.6 119.8Q103.6 120.5 103.9 121.0L103.9 121.0Q104.2 121.6 104.7 121.9Q105.1 122.1 105.8 122.1L105.8 122.1Q106.2 122.1 106.6 122.0Q106.9 121.9 107.1 121.7Q107.4 121.4 107.5 121.0L107.5 121.0L108.6 121.3Q108.5 121.9 108.1 122.3Q107.7 122.7 107.1 122.9Q106.5 123.2 105.8 123.2ZM103.6 118.9L103.6 118.9L107.6 118.9Q107.5 118.4 107.4 118.0L107.4 118.0Q107.2 117.4 106.7 117.1Q106.3 116.8 105.7 116.8Q105.0 116.8 104.6 117.1Q104.1 117.5 103.9 118.0L103.9 118.0Q103.7 118.4 103.6 118.9ZM112.8 123.2L112.8 123.2Q112.1 123.2 111.5 122.9Q110.9 122.7 110.6 122.3Q110.2 121.9 110.1 121.3L110.1 121.3L111.2 121.0Q111.3 121.6 111.7 121.9Q112.1 122.1 112.8 122.1L112.8 122.1Q113.5 122.1 114.0 121.8Q114.4 121.5 114.4 121.1L114.4 121.1Q114.4 120.7 114.2 120.5Q113.9 120.2 113.4 120.1L113.4 120.1L112.2 119.8Q111.2 119.6 110.8 119.1Q110.3 118.6 110.3 117.9L110.3 117.9Q110.3 117.3 110.6 116.8Q111.0 116.3 111.6 116.1Q112.2 115.8 112.9 115.8L112.9 115.8Q113.6 115.8 114.2 116.0Q114.7 116.3 115.0 116.6Q115.3 117.0 115.5 117.5L115.5 117.5L114.4 117.8Q114.3 117.4 113.9 117.1Q113.6 116.8 112.9 116.8L112.9 116.8Q112.3 116.8 111.9 117.1Q111.4 117.4 111.4 117.8L111.4 117.8Q111.4 118.2 111.7 118.4Q112.0 118.7 112.6 118.8L112.6 118.8L113.7 119.1Q114.7 119.3 115.1 119.8Q115.6 120.3 115.6 121.0L115.6 121.0Q115.6 121.6 115.2 122.1Q114.9 122.6 114.3 122.9Q113.6 123.2 112.8 123.2Z "/></g><mask id="satori_om-id-1-2-2"><rect x="364" y="109" width="16" height="17" fill="#fff"/></mask><g  ><path fill="#7aa2f7" d="M366.9 112.8L369.1 112.8L369.1 123L367.0 123L367.0 114.7L367.0 114.7L364.6 116.3L364.6 114.4L366.9 112.8ZM374.6 123.1L374.6 123.1Q373.4 123.1 372.6 122.8Q371.7 122.4 371.2 121.7Q370.7 121.1 370.7 120.3L370.7 120.3Q370.7 119.6 371.0 119.1Q371.3 118.6 371.8 118.2Q372.3 117.8 372.9 117.7L372.9 117.7L372.9 117.7Q372.1 117.5 371.6 116.9Q371.0 116.2 371.0 115.4L371.0 115.4Q371.0 114.6 371.5 114.0Q372.0 113.4 372.8 113.0Q373.6 112.7 374.6 112.7L374.6 112.7Q375.6 112.7 376.4 113.0Q377.2 113.4 377.7 114.0Q378.1 114.6 378.1 115.4L378.1 115.4Q378.1 116.2 377.6 116.9Q377.1 117.5 376.3 117.7L376.3 117.7L376.3 117.7Q376.9 117.8 377.4 118.2Q377.9 118.6 378.2 119.1Q378.5 119.6 378.5 120.3L378.5 120.3Q378.5 121.1 378.0 121.7Q377.5 122.4 376.6 122.8Q375.7 123.1 374.6 123.1ZM374.6 121.6L374.6 121.6Q375.1 121.6 375.5 121.4Q375.9 121.2 376.1 120.9Q376.3 120.5 376.3 120.1L376.3 120.1Q376.3 119.7 376.1 119.3Q375.9 119.0 375.5 118.8Q375.1 118.6 374.6 118.6L374.6 118.6Q374.1 118.6 373.7 118.8Q373.3 119.0 373.1 119.3Q372.8 119.6 372.8 120.1L372.8 120.1Q372.8 120.5 373.1 120.9Q373.3 121.2 373.7 121.4Q374.1 121.6 374.6 121.6ZM374.6 117.0L374.6 117.0Q375.0 117.0 375.4 116.8Q375.7 116.7 375.9 116.4Q376.1 116.0 376.1 115.6L376.1 115.6Q376.1 115.2 375.9 114.9Q375.7 114.6 375.4 114.4Q375.0 114.3 374.6 114.3L374.6 114.3Q374.1 114.3 373.8 114.4Q373.5 114.6 373.3 114.9Q373.1 115.2 373.1 115.6L373.1 115.6Q373.1 116.0 373.3 116.4Q373.5 116.7 373.8 116.8Q374.2 117.0 374.6 117.0Z "/></g><mask id="satori_om-id-1-3"><rect x="23" y="138" width="357" height="17" fill="#fff"/></mask><mask id="satori_om-id-1-3-0"><rect x="23" y="143" width="7" height="7" fill="#fff"/></mask><path x="23" y="143" width="7" height="7" fill="#bb9af7" d="M26.5,143 h0 a3.5,3.5 0 0 1 3.5,3.5 v0 a3.5,3.5 0 0 1 -3.5,3.5 h0 a3.5,3.5 0 0 1 -3.5,-3.5 v0 a3.5,3.5 0 0 1 3.5,-3.5"/><mask id="satori_om-id-1-3-1"><rect x="40" y="139" width="320" height="16" fill="#fff"/></mask><g  ><path fill="#787c99" d="M42.3 152L41.1 152L41.1 142.5L46.9 142.5L46.9 143.6L42.3 143.6L42.3 146.8L46.4 146.8L46.4 147.9L42.3 147.9L42.3 152ZM51.6 152.2L51.6 152.2Q50.6 152.2 49.9 151.7Q49.1 151.2 48.7 150.4Q48.3 149.6 48.3 148.5L48.3 148.5Q48.3 147.4 48.7 146.6Q49.1 145.7 49.9 145.3Q50.6 144.8 51.6 144.8L51.6 144.8Q52.5 144.8 53.3 145.3Q54.0 145.7 54.4 146.6Q54.8 147.4 54.8 148.5L54.8 148.5Q54.8 149.6 54.4 150.4Q54.0 151.2 53.3 151.7Q52.5 152.2 51.6 152.2ZM51.6 151.1L51.6 151.1Q52.3 151.1 52.7 150.8Q53.2 150.4 53.4 149.8Q53.7 149.2 53.7 148.5L53.7 148.5Q53.7 147.8 53.4 147.2Q53.2 146.6 52.7 146.2Q52.3 145.8 51.6 145.8L51.6 145.8Q50.9 145.8 50.4 146.2Q49.9 146.6 49.7 147.2Q49.5 147.8 49.5 148.5L49.5 148.5Q49.5 149.2 49.7 149.8Q49.9 150.4 50.4 150.8Q50.9 151.1 51.6 151.1ZM57.6 152L56.5 152L56.5 144.9L57.6 144.9L57.6 146.0L57.7 146.0Q57.8 145.5 58.4 145.1Q58.9 144.8 59.5 144.8L59.5 144.8Q59.6 144.8 59.8 144.8Q60.0 144.8 60.1 144.8L60.1 144.8L60.1 146.0Q60.0 146.0 59.8 145.9Q59.6 145.9 59.4 145.9L59.4 145.9Q58.9 145.9 58.5 146.1Q58.1 146.3 57.8 146.7Q57.6 147.1 57.6 147.6L57.6 147.6L57.6 152ZM62.5 152L61.4 152L61.4 142.5L62.5 142.5L62.5 148.0L62.6 148.0L65.7 144.9L67.1 144.9L64.1 148.0L67.3 152L65.9 152L63.3 148.7L62.5 149.4L62.5 152ZM70.9 152.2L70.9 152.2Q70.2 152.2 69.6 151.9Q69.0 151.7 68.7 151.3Q68.3 150.9 68.2 150.3L68.2 150.3L69.3 150.0Q69.4 150.6 69.8 150.9Q70.3 151.1 70.9 151.1L70.9 151.1Q71.6 151.1 72.1 150.8Q72.5 150.5 72.5 150.1L72.5 150.1Q72.5 149.7 72.3 149.5Q72.0 149.2 71.5 149.1L71.5 149.1L70.3 148.8Q69.3 148.6 68.9 148.1Q68.4 147.6 68.4 146.9L68.4 146.9Q68.4 146.3 68.7 145.8Q69.1 145.3 69.7 145.1Q70.3 144.8 71.0 144.8L71.0 144.8Q71.8 144.8 72.3 145.0Q72.8 145.3 73.1 145.6Q73.4 146.0 73.6 146.5L73.6 146.5L72.5 146.8Q72.4 146.4 72.1 146.1Q71.7 145.8 71.0 145.8L71.0 145.8Q70.4 145.8 70.0 146.1Q69.6 146.4 69.6 146.8L69.6 146.8Q69.6 147.2 69.8 147.4Q70.1 147.7 70.7 147.8L70.7 147.8L71.8 148.1Q72.8 148.3 73.2 148.8Q73.7 149.3 73.7 150.0L73.7 150.0Q73.7 150.6 73.4 151.1Q73.0 151.6 72.4 151.9Q71.7 152.2 70.9 152.2Z "/></g><mask id="satori_om-id-1-3-2"><rect x="370" y="138" width="10" height="17" fill="#fff"/></mask><g  ><path fill="#bb9af7" d="M374.7 152.1L374.7 152.1Q373.4 152.1 372.5 151.5Q371.6 150.9 371.1 149.7Q370.6 148.6 370.6 146.9L370.6 146.9Q370.6 145.3 371.1 144.1Q371.6 142.9 372.5 142.3Q373.4 141.7 374.7 141.7L374.7 141.7Q376.0 141.7 376.9 142.3Q377.8 142.9 378.3 144.1Q378.8 145.3 378.8 146.9L378.8 146.9Q378.8 148.6 378.3 149.7Q377.8 150.9 376.9 151.5Q376.0 152.1 374.7 152.1ZM374.7 150.4L374.7 150.4Q375.3 150.4 375.8 150.0Q376.2 149.6 376.4 148.8Q376.7 148.0 376.7 146.9L376.7 146.9Q376.7 145.8 376.4 145.0Q376.2 144.2 375.8 143.8Q375.3 143.4 374.7 143.4L374.7 143.4Q374.1 143.4 373.7 143.8Q373.2 144.2 373.0 145.0Q372.8 145.8 372.8 146.9L372.8 146.9Q372.8 148.0 373.0 148.8Q373.2 149.6 373.7 150.0Q374.1 150.4 374.7 150.4Z "/></g><mask id="satori_om-id-1-4"><rect x="23" y="167" width="357" height="17" fill="#fff"/></mask><mask id="satori_om-id-1-4-0"><rect x="23" y="172" width="7" height="7" fill="#fff"/></mask><path x="23" y="172" width="7" height="7" fill="#ff9e64" d="M26.5,172 h0 a3.5,3.5 0 0 1 3.5,3.5 v0 a3.5,3.5 0 0 1 -3.5,3.5 h0 a3.5,3.5 0 0 1 -3.5,-3.5 v0 a3.5,3.5 0 0 1 3.5,-3.5"/><mask id="satori_om-id-1-4-1"><rect x="40" y="168" width="323" height="16" fill="#fff"/></mask><g  ><path fill="#787c99" d="M42.3 181L41.1 181L41.1 171.5L46.9 171.5L46.9 172.6L42.3 172.6L42.3 175.8L46.4 175.8L46.4 176.9L42.3 176.9L42.3 181ZM51.6 181.2L51.6 181.2Q50.6 181.2 49.9 180.7Q49.1 180.2 48.7 179.4Q48.3 178.6 48.3 177.5L48.3 177.5Q48.3 176.4 48.7 175.6Q49.1 174.7 49.9 174.3Q50.6 173.8 51.6 173.8L51.6 173.8Q52.5 173.8 53.3 174.3Q54.0 174.7 54.4 175.6Q54.8 176.4 54.8 177.5L54.8 177.5Q54.8 178.6 54.4 179.4Q54.0 180.2 53.3 180.7Q52.5 181.2 51.6 181.2ZM51.6 180.1L51.6 180.1Q52.3 180.1 52.7 179.8Q53.2 179.4 53.4 178.8Q53.7 178.2 53.7 177.5L53.7 177.5Q53.7 176.8 53.4 176.2Q53.2 175.6 52.7 175.2Q52.3 174.8 51.6 174.8L51.6 174.8Q50.9 174.8 50.4 175.2Q49.9 175.6 49.7 176.2Q49.5 176.8 49.5 177.5L49.5 177.5Q49.5 178.2 49.7 178.8Q49.9 179.4 50.4 179.8Q50.9 180.1 51.6 180.1ZM56.5 171.5L57.6 171.5L57.6 181L56.5 181L56.5 171.5ZM59.6 171.5L60.8 171.5L60.8 181L59.6 181L59.6 171.5ZM65.7 181.2L65.7 181.2Q64.7 181.2 64.0 180.7Q63.2 180.2 62.8 179.4Q62.4 178.6 62.4 177.5L62.4 177.5Q62.4 176.4 62.8 175.6Q63.2 174.7 64.0 174.3Q64.7 173.8 65.7 173.8L65.7 173.8Q66.6 173.8 67.4 174.3Q68.1 174.7 68.5 175.6Q68.9 176.4 68.9 177.5L68.9 177.5Q68.9 178.6 68.5 179.4Q68.1 180.2 67.4 180.7Q66.6 181.2 65.7 181.2ZM65.7 180.1L65.7 180.1Q66.4 180.1 66.8 179.8Q67.3 179.4 67.5 178.8Q67.7 178.2 67.7 177.5L67.7 177.5Q67.7 176.8 67.5 176.2Q67.3 175.6 66.8 175.2Q66.4 174.8 65.7 174.8L65.7 174.8Q64.9 174.8 64.5 175.2Q64.0 175.6 63.8 176.2Q63.6 176.8 63.6 177.5L63.6 177.5Q63.6 178.2 63.8 178.8Q64.0 179.4 64.5 179.8Q64.9 180.1 65.7 180.1ZM73.3 181L72.2 181L70.0 173.9L71.2 173.9L72.1 177.0Q72.3 177.6 72.5 178.4L72.5 178.4Q72.6 179.0 72.8 179.8L72.8 179.8Q72.9 179.1 73.1 178.5L73.1 178.5Q73.2 177.7 73.4 177.0L73.4 177.0L74.3 173.9L75.5 173.9L76.3 177.0Q76.5 177.7 76.7 178.5L76.7 178.5Q76.9 179.1 77.0 179.8L77.0 179.8Q77.1 179.1 77.3 178.5L77.3 178.5Q77.5 177.7 77.7 177.0L77.7 177.0L78.5 173.9L79.8 173.9L77.6 181L76.5 181L75.5 177.8Q75.4 177.3 75.3 176.8Q75.1 176.3 75.0 175.8L75.0 175.8Q75.0 175.5 74.9 175.2L74.9 175.2Q74.8 175.5 74.8 175.7L74.8 175.7Q74.6 176.3 74.5 176.8Q74.4 177.3 74.2 177.8L74.2 177.8L73.3 181ZM84.2 181.2L84.2 181.2Q83.2 181.2 82.4 180.7Q81.7 180.2 81.3 179.4Q80.9 178.6 80.9 177.5Q80.9 176.4 81.3 175.6Q81.6 174.8 82.4 174.3Q83.1 173.8 84.1 173.8L84.1 173.8Q84.6 173.8 85.2 174.0Q85.7 174.2 86.2 174.6Q86.6 175.0 86.9 175.7Q87.1 176.4 87.1 177.4L87.1 177.4L87.1 177.8L82.0 177.8Q82.0 178.5 82.3 179.0L82.3 179.0Q82.6 179.6 83.1 179.9Q83.5 180.1 84.2 180.1L84.2 180.1Q84.6 180.1 85.0 180.0Q85.3 179.9 85.5 179.7Q85.8 179.4 85.9 179.0L85.9 179.0L87.0 179.3Q86.9 179.9 86.5 180.3Q86.1 180.7 85.5 180.9Q84.9 181.2 84.2 181.2ZM82.0 176.9L82.0 176.9L86.0 176.9Q85.9 176.4 85.8 176.0L85.8 176.0Q85.6 175.4 85.1 175.1Q84.7 174.8 84.1 174.8Q83.4 174.8 83.0 175.1Q82.5 175.5 82.3 176.0L82.3 176.0Q82.1 176.4 82.0 176.9ZM89.9 181L88.8 181L88.8 173.9L89.9 173.9L89.9 175.0L90.0 175.0Q90.2 174.5 90.7 174.1Q91.2 173.8 91.8 173.8L91.8 173.8Q91.9 173.8 92.1 173.8Q92.3 173.8 92.4 173.8L92.4 173.8L92.4 175.0Q92.3 175.0 92.1 174.9Q91.9 174.9 91.7 174.9L91.7 174.9Q91.2 174.9 90.8 175.1Q90.4 175.3 90.2 175.7Q89.9 176.1 89.9 176.6L89.9 176.6L89.9 181ZM96.1 181.2L96.1 181.2Q95.4 181.2 94.8 180.9Q94.2 180.7 93.9 180.3Q93.5 179.9 93.4 179.3L93.4 179.3L94.4 179.0Q94.6 179.6 95.0 179.9Q95.4 180.1 96.1 180.1L96.1 180.1Q96.8 180.1 97.3 179.8Q97.7 179.5 97.7 179.1L97.7 179.1Q97.7 178.7 97.4 178.5Q97.2 178.2 96.7 178.1L96.7 178.1L95.5 177.8Q94.5 177.6 94.0 177.1Q93.6 176.6 93.6 175.9L93.6 175.9Q93.6 175.3 93.9 174.8Q94.3 174.3 94.9 174.1Q95.4 173.8 96.2 173.8L96.2 173.8Q96.9 173.8 97.4 174.0Q98.0 174.3 98.3 174.6Q98.6 175.0 98.8 175.5L98.8 175.5L97.7 175.8Q97.6 175.4 97.2 175.1Q96.9 174.8 96.2 174.8L96.2 174.8Q95.6 174.8 95.2 175.1Q94.7 175.4 94.7 175.8L94.7 175.8Q94.7 176.2 95.0 176.4Q95.3 176.7 95.9 176.8L95.9 176.8L97.0 177.1Q98.0 177.3 98.4 177.8Q98.9 178.3 98.9 179.0L98.9 179.0Q98.9 179.6 98.5 180.1Q98.2 180.6 97.6 180.9Q96.9 181.2 96.1 181.2Z "/></g><mask id="satori_om-id-1-4-2"><rect x="373" y="167" width="7" height="17" fill="#fff"/></mask><g  ><path fill="#ff9e64" d="M375.9 170.8L378.1 170.8L378.1 181L376.0 181L376.0 172.7L376.0 172.7L373.6 174.3L373.6 172.4L375.9 170.8Z "/></g><mask id="satori_om-id-1-5"><rect x="23" y="196" width="357" height="17" fill="#fff"/></mask><mask id="satori_om-id-1-5-0"><rect x="23" y="201" width="7" height="7" fill="#fff"/></mask><path x="23" y="201" width="7" height="7" fill="#7dcfff" d="M26.5,201 h0 a3.5,3.5 0 0 1 3.5,3.5 v0 a3.5,3.5 0 0 1 -3.5,3.5 h0 a3.5,3.5 0 0 1 -3.5,-3.5 v0 a3.5,3.5 0 0 1 3.5,-3.5"/><mask id="satori_om-id-1-5-1"><rect x="40" y="197" width="320" height="16" fill="#fff"/></mask><g  ><path fill="#787c99" d="M42.3 210L41.1 210L41.1 200.5L46.9 200.5L46.9 201.6L42.3 201.6L42.3 204.8L46.4 204.8L46.4 205.9L42.3 205.9L42.3 210ZM51.6 210.2L51.6 210.2Q50.6 210.2 49.9 209.7Q49.1 209.2 48.7 208.4Q48.3 207.6 48.3 206.5L48.3 206.5Q48.3 205.4 48.7 204.6Q49.1 203.7 49.9 203.3Q50.6 202.8 51.6 202.8L51.6 202.8Q52.5 202.8 53.3 203.3Q54.0 203.7 54.4 204.6Q54.8 205.4 54.8 206.5L54.8 206.5Q54.8 207.6 54.4 208.4Q54.0 209.2 53.3 209.7Q52.5 210.2 51.6 210.2ZM51.6 209.1L51.6 209.1Q52.3 209.1 52.7 208.8Q53.2 208.4 53.4 207.8Q53.7 207.2 53.7 206.5L53.7 206.5Q53.7 205.8 53.4 205.2Q53.2 204.6 52.7 204.2Q52.3 203.8 51.6 203.8L51.6 203.8Q50.9 203.8 50.4 204.2Q49.9 204.6 49.7 205.2Q49.5 205.8 49.5 206.5L49.5 206.5Q49.5 207.2 49.7 207.8Q49.9 208.4 50.4 208.8Q50.9 209.1 51.6 209.1ZM56.5 200.5L57.6 200.5L57.6 210L56.5 210L56.5 200.5ZM59.6 200.5L60.8 200.5L60.8 210L59.6 210L59.6 200.5ZM65.7 210.2L65.7 210.2Q64.7 210.2 64.0 209.7Q63.2 209.2 62.8 208.4Q62.4 207.6 62.4 206.5L62.4 206.5Q62.4 205.4 62.8 204.6Q63.2 203.7 64.0 203.3Q64.7 202.8 65.7 202.8L65.7 202.8Q66.6 202.8 67.4 203.3Q68.1 203.7 68.5 204.6Q68.9 205.4 68.9 206.5L68.9 206.5Q68.9 207.6 68.5 208.4Q68.1 209.2 67.4 209.7Q66.6 210.2 65.7 210.2ZM65.7 209.1L65.7 209.1Q66.4 209.1 66.8 208.8Q67.3 208.4 67.5 207.8Q67.7 207.2 67.7 206.5L67.7 206.5Q67.7 205.8 67.5 205.2Q67.3 204.6 66.8 204.2Q66.4 203.8 65.7 203.8L65.7 203.8Q64.9 203.8 64.5 204.2Q64.0 204.6 63.8 205.2Q63.6 205.8 63.6 206.5L63.6 206.5Q63.6 207.2 63.8 207.8Q64.0 208.4 64.5 208.8Q64.9 209.1 65.7 209.1ZM73.3 210L72.2 210L70.0 202.9L71.2 202.9L72.1 206.0Q72.3 206.6 72.5 207.4L72.5 207.4Q72.6 208.0 72.8 208.8L72.8 208.8Q72.9 208.1 73.1 207.5L73.1 207.5Q73.2 206.7 73.4 206.0L73.4 206.0L74.3 202.9L75.5 202.9L76.3 206.0Q76.5 206.7 76.7 207.5L76.7 207.5Q76.9 208.1 77.0 208.8L77.0 208.8Q77.1 208.1 77.3 207.5L77.3 207.5Q77.5 206.7 77.7 206.0L77.7 206.0L78.5 202.9L79.8 202.9L77.6 210L76.5 210L75.5 206.8Q75.4 206.3 75.3 205.8Q75.1 205.3 75.0 204.8L75.0 204.8Q75.0 204.5 74.9 204.2L74.9 204.2Q74.8 204.5 74.8 204.7L74.8 204.7Q74.6 205.3 74.5 205.8Q74.4 206.3 74.2 206.8L74.2 206.8L73.3 210ZM82.3 210L81.2 210L81.2 202.9L82.3 202.9L82.3 210ZM81.8 201.7L81.8 201.7Q81.5 201.7 81.2 201.5Q81.0 201.3 81.0 201.0L81.0 201.0Q81.0 200.7 81.2 200.4Q81.5 200.2 81.8 200.2L81.8 200.2Q82.1 200.2 82.3 200.4Q82.6 200.7 82.6 201.0L82.6 201.0Q82.6 201.3 82.3 201.5Q82.1 201.7 81.8 201.7ZM85.5 205.7L85.5 205.7L85.5 210L84.4 210L84.4 202.9L85.4 202.9L85.5 204.2Q85.8 203.6 86.2 203.2L86.2 203.2Q86.8 202.8 87.6 202.8L87.6 202.8Q88.3 202.8 88.9 203.1Q89.4 203.4 89.7 204.0Q90.0 204.6 90.0 205.5L90.0 205.5L90.0 210L88.9 210L88.9 205.6Q88.9 204.8 88.5 204.3Q88.0 203.8 87.3 203.8L87.3 203.8Q86.8 203.8 86.4 204.1Q86.0 204.3 85.7 204.7Q85.5 205.1 85.5 205.7ZM94.9 212.8L94.9 212.8Q94.1 212.8 93.5 212.6Q93.0 212.4 92.6 212.1Q92.2 211.7 92.0 211.4L92.0 211.4L92.9 210.8Q93.1 211.0 93.3 211.2Q93.5 211.5 93.9 211.6Q94.3 211.8 94.9 211.8L94.9 211.8Q95.8 211.8 96.3 211.4Q96.9 211.0 96.9 210.1L96.9 210.1L96.9 208.7L96.7 208.7Q96.6 208.9 96.4 209.2Q96.2 209.5 95.8 209.7Q95.4 209.9 94.7 209.9L94.7 209.9Q93.8 209.9 93.2 209.5Q92.5 209.1 92.1 208.3Q91.7 207.5 91.7 206.4L91.7 206.4Q91.7 205.3 92.1 204.5Q92.5 203.7 93.1 203.3Q93.8 202.8 94.7 202.8L94.7 202.8Q95.4 202.8 95.8 203.0Q96.2 203.3 96.4 203.6Q96.7 203.8 96.8 204.0L96.8 204.0L96.9 204.0L96.9 202.9L98.0 202.9L98.0 210.2Q98.0 211.1 97.6 211.7Q97.2 212.3 96.5 212.5Q95.8 212.8 94.9 212.8ZM94.9 208.9L94.9 208.9Q95.5 208.9 96.0 208.6Q96.4 208.3 96.6 207.7Q96.9 207.2 96.9 206.4L96.9 206.4Q96.9 205.6 96.6 205.1Q96.4 204.5 96.0 204.2Q95.5 203.8 94.9 203.8L94.9 203.8Q94.2 203.8 93.8 204.2Q93.3 204.5 93.1 205.1Q92.9 205.7 92.9 206.4L92.9 206.4Q92.9 207.1 93.1 207.7Q93.3 208.2 93.8 208.6Q94.2 208.9 94.9 208.9Z "/></g><mask id="satori_om-id-1-5-2"><rect x="370" y="196" width="10" height="17" fill="#fff"/></mask><g  ><path fill="#7dcfff" d="M375.6 208.2L370.7 208.2L370.7 206.5L374.9 199.8L377.6 199.8L377.6 206.5L378.8 206.5L378.8 208.2L377.6 208.2L377.6 210L375.6 210L375.6 208.2ZM372.8 206.5L375.6 206.5L375.6 202.1L375.5 202.1L372.8 206.4L372.8 206.5Z "/></g></svg>