<!-- Generated by readme-aura https://github.com/collectioneur/readme-aura -->
<svg width="403" height="235" viewBox="0 0 403 235" xmlns="http://www.w3.org/2000/svg"><defs><clipPath id="satori_bc-id"><path x="0" y="0" width="403" height="235" d="M18,0 h367 a18,18 0 0 1 18,18 v199 a18,18 0 0 1 -18,18 h-367 a18,18 0 0 1 -18,-18 v-199 a18,18 0 0 1 18,-18"/></clipPath></defs><mask id="satori_om-id"><rect x="1" y="1" width="401" height="233" fill="#fff"/><path width="403" height="235" fill="none" stroke="#000" stroke-width="2" d="M5.272,5.272 A18,18 0 0 1 18,0 h367 a18,18 0 0 1 18,18 v199 a18,18 0 0 1 -18,18 h-367 a18,18 0 0 1 -18,-18 v-199 A18,18 0 0 1 5.272,5.272"/></mask><path x="0" y="0" width="403" height="235" fill="#1a1b26" d="M18,0 h367 a18,18 0 0 1 18,18 v199 a18,18 0 0 1 -18,18 h-367 a18,18 0 0 1 -18,-18 v-199 a18,18 0 0 1 18,-18"/><path width="403" height="235" clip-path="url(#satori_bc-id)" fill="none" stroke="#292e42" stroke-width="2" d="M5.272,5.272 A18,18 0 0 1 18,0 h367 a18,18 0 0 1 18,18 v199 a18,18 0 0 1 -18,18 h-367 a18,18 0 0 1 -18,-18 v-199 A18,18 0 0 1 5.272,5.272"/><mask id="satori_om-id-0"><rect x="23" y="21" width="357" height="16" fill="#fff"/></mask><defs><pattern id="satori_pattern_id-0-0_0" x="0" y="0" width="1" height="1" patternUnits="objectBoundingBox"><linearGradient id="satori_biid-0-0_0" x1="0" y1="0" x2="0" y2="1" spreadMethod="pad"><stop offset="0%" stop-color="#7aa2f7"/><stop offset="100%" stop-color="#ff9e64"/></linearGradient><rect x="0" y="0" width="4" height="16" fill="url(#satori_biid-0-0_0)"/></pattern></defs><mask id="satori_om-id-0-0"><rect x="23" y="21" width="4" height="16" fill="#fff"/></mask><path x="23" y="21" width="4" height="16" fill="url(#satori_pattern_id-0-0_0)" d="M25,21 h0 a2,2 0 0 1 2,2 v12 a2,2 0 0 1 -2,2 h0 a2,2 0 0 1 -2,-2 v-12 a2,2 0 0 1 2,-2"/><mask id="satori_om-id-0-1"><rect x="37" y="21" width="128" height="16" fill="#fff"/></mask><g  ><path fill="#c0caf5" d="M40.4 26.1L37.5 26.1L37.5 24.5L45.2 24.5L45.2 26.1L42.3 26.1L42.3 34L40.4 34L40.4 26.1ZM51.9 34.1L51.9 34.1Q50.6 34.1 49.6 33.6Q48.6 33.0 48.1 31.9Q47.5 30.8 47.5 29.3L47.5 29.3Q47.5 27.7 48.1 26.6Q48.6 25.6 49.6 25.0Q50.6 24.4 51.9 24.4L51.9 24.4Q53.1 24.4 54.1 25.0Q55.1 25.6 55.7 26.6Q56.3 27.7 56.3 29.3L56.3 29.3Q56.3 30.8 55.7 31.9Q55.1 33.0 54.1 33.6Q53.1 34.1 51.9 34.1ZM51.9 32.4L51.9 32.4Q52.6 32.4 53.2 32.0Q53.7 31.7 54.0 31.0Q54.3 30.3 54.3 29.3L54.3 29.3Q54.3 28.3 54.0 27.6Q53.7 26.9 53.2 26.5Q52.6 26.1 51.9 26.1L51.9 26.1Q51.2 26.1 50.6 26.5Q50.1 26.9 49.7 27.6Q49.4 28.3 49.4 29.3L49.4 29.3Q49.4 30.3 49.7 31.0Q50.1 31.7 50.6 32.0Q51.2 32.4 51.9 32.4ZM60.9 34L59.0 34L59.0 24.5L62.6 24.5Q63.7 24.5 64.5 25.0Q65.2 25.4 65.6 26.1Q66.0 26.8 66.0 27.7L66.0 27.7Q66.0 28.7 65.6 29.4Q65.2 30.1 64.5 30.5Q63.7 30.9 62.6 30.9L62.6 30.9L60.9 30.9L60.9 34ZM60.9 26.1L60.9 29.3L62.3 29.3Q62.9 29.3 63.3 29.1Q63.6 28.9 63.8 28.6Q64.0 28.2 64.0 27.7Q64.0 27.3 63.8 26.9Q63.6 26.5 63.3 26.3Q62.9 26.1 62.3 26.1L62.3 26.1L60.9 26.1Z M78.9 34L72.9 34L72.9 24.5L74.8 24.5L74.8 32.4L78.9 32.4L78.9 34ZM83.0 34L80.9 34L84.1 24.5L86.6 24.5L89.9 34L87.8 34L87.1 31.8L83.7 31.8L83.0 34ZM84.2 30.3L86.6 30.3L86.3 29.4Q86.0 28.6 85.7 27.5L85.7 27.5Q85.5 26.8 85.3 26.1L85.3 26.1Q85.1 26.8 85.0 27.5L85.0 27.5Q84.7 28.6 84.5 29.4L84.5 29.4L84.2 30.3ZM94.3 34L92.3 34L92.3 24.5L94.5 24.5L97.5 29.3Q97.7 29.7 97.9 30.1Q98.2 30.6 98.4 31.1L98.4 31.1Q98.5 31.3 98.6 31.6L98.6 31.6Q98.6 31.4 98.6 31.1L98.6 31.1Q98.6 30.6 98.5 30.0Q98.5 29.5 98.5 29.1L98.5 29.1L98.5 24.5L100.5 24.5L100.5 34L98.3 34L95.6 29.7Q95.3 29.2 95.1 28.7Q94.8 28.2 94.5 27.7L94.5 27.7Q94.4 27.4 94.2 26.9L94.2 26.9Q94.2 27.3 94.2 27.7L94.2 27.7Q94.2 28.3 94.3 28.8Q94.3 29.3 94.3 29.7L94.3 29.7L94.3 34ZM107.6 34.1L107.6 34.1Q106.3 34.1 105.3 33.5Q104.3 33.0 103.7 31.9Q103.2 30.8 103.2 29.3L103.2 29.3Q103.2 27.7 103.7 26.7Q104.3 25.6 105.3 25.0Q106.3 24.4 107.6 24.4L107.6 24.4Q108.4 24.4 109.1 24.6Q109.7 24.9 110.3 25.3Q110.8 25.7 111.2 26.3Q111.5 26.9 111.6 27.6L111.6 27.6L109.6 27.6Q109.5 27.3 109.3 27.0Q109.2 26.7 108.9 26.5Q108.6 26.3 108.3 26.2Q108.0 26.1 107.6 26.1L107.6 26.1Q106.9 26.1 106.3 26.5Q105.7 26.9 105.4 27.6Q105.1 28.3 105.1 29.3Q105.1 30.3 105.4 31.0Q105.7 31.7 106.3 32.0Q106.9 32.4 107.6 32.4L107.6 32.4Q108.3 32.4 108.8 32.2Q109.3 31.9 109.5 31.4L109.5 31.4Q109.8 31.0 109.8 30.4L109.8 30.4L107.8 30.4L107.8 29.0L111.7 29.0L111.7 30.1Q111.7 31.4 111.2 32.3Q110.6 33.2 109.7 33.6Q108.8 34.1 107.6 34.1ZM118.3 34.1L118.3 34.1Q117.1 34.1 116.2 33.7Q115.3 33.3 114.9 32.5Q114.4 31.7 114.4 30.7L114.4 30.7L114.4 24.5L116.3 24.5L116.3 30.5Q116.3 31.1 116.6 31.5Q116.8 31.9 117.2 32.2Q117.7 32.4 118.3 32.4L118.3 32.4Q118.9 32.4 119.3 32.2Q119.8 31.9 120.0 31.5Q120.2 31.1 120.2 30.5L120.2 30.5L120.2 24.5L122.2 24.5L122.2 30.7Q122.2 31.7 121.7 32.5Q121.2 33.3 120.3 33.7Q119.4 34.1 118.3 34.1ZM126.7 34L124.5 34L127.8 24.5L130.3 24.5L133.6 34L131.5 34L130.7 31.8L127.4 31.8L126.7 34ZM127.9 30.3L130.2 30.3L130.0 29.4Q129.7 28.6 129.4 27.5L129.4 27.5Q129.2 26.8 129.0 26.1L129.0 26.1Q128.8 26.8 128.7 27.5L128.7 27.5Q128.4 28.6 128.1 29.4L128.1 29.4L127.9 30.3ZM140.2 34.1L140.2 34.1Q138.9 34.1 137.9 33.5Q136.9 33.0 136.3 31.9Q135.7 30.8 135.7 29.3L135.7 29.3Q135.7 27.7 136.3 26.7Q136.9 25.6 137.9 25.0Q138.9 24.4 140.1 24.4L140.1 24.4Q140.9 24.4 141.6 24.6Q142.3 24.9 142.9 25.3Q143.4 25.7 143.7 26.3Q144.1 26.9 144.2 27.6L144.2 27.6L142.2 27.6Q142.1 27.3 141.9 27.0Q141.7 26.7 141.5 26.5Q141.2 26.3 140.9 26.2Q140.6 26.1 140.2 26.1L140.2 26.1Q139.4 26.1 138.9 26.5Q138.3 26.9 138.0 27.6Q137.7 28.3 137.7 29.3Q137.7 30.3 138.0 31.0Q138.3 31.7 138.9 32.0Q139.4 32.4 140.2 32.4L140.2 32.4Q140.9 32.4 141.4 32.2Q141.9 31.9 142.1 31.4L142.1 31.4Q142.4 31.0 142.4 30.4L142.4 30.4L140.3 30.4L140.3 29.0L144.3 29.0L144.3 30.1Q144.3 31.4 143.7 32.3Q143.2 33.2 142.3 33.6Q141.4 34.1 140.2 34.1ZM153.3 34L147.0 34L147.0 24.5L153.3 24.5L153.3 26.1L148.9 26.1L148.9 28.4L152.9 28.4L152.9 30.0L148.9 30.0L148.9 32.4L153.3 32.4L153.3 34ZM159.5 34.1L159.5 34.1Q158.4 34.1 157.5 33.8Q156.7 33.4 156.2 32.8Q155.8 32.1 155.7 31.1L155.7 31.1L157.6 31.1Q157.7 31.5 157.9 31.9Q158.1 32.2 158.6 32.3Q159.0 32.5 159.5 32.5L159.5 32.5Q160.0 32.5 160.4 32.4Q160.8 32.2 161.0 31.9Q161.2 31.7 161.2 31.3L161.2 31.3Q161.2 31.0 161.0 30.8Q160.8 30.5 160.5 30.4Q160.1 30.2 159.6 30.1L159.6 30.1L158.5 29.8Q157.3 29.5 156.7 28.9Q156.0 28.3 156.0 27.3L156.0 27.3Q156.0 26.4 156.4 25.8Q156.9 25.1 157.7 24.8Q158.5 24.4 159.5 24.4L159.5 24.4Q160.6 24.4 161.4 24.8Q162.1 25.1 162.6 25.8Q163.0 26.4 163.0 27.2L163.0 27.2L161.2 27.2Q161.1 26.7 160.7 26.4Q160.2 26.0 159.5 26.0L159.5 26.0Q159.0 26.0 158.7 26.2Q158.3 26.3 158.2 26.6Q158.0 26.8 158.0 27.1L158.0 27.1Q158.0 27.5 158.2 27.7Q158.4 28.0 158.7 28.1Q159.1 28.2 159.5 28.3L159.5 28.3L160.3 28.5Q160.9 28.7 161.4 28.9Q162.0 29.1 162.4 29.5Q162.7 29.8 163.0 30.3Q163.2 30.7 163.2 31.3L163.2 31.3Q163.2 32.2 162.7 32.8Q162.3 33.4 161.5 33.8Q160.7 34.1 159.5 34.1Z "/></g><mask id="satori_om-id-1"><rect x="23" y="51" width="357" height="174" fill="#fff"/></mask><mask id="satori_om-id-1-0"><rect x="23" y="51" width="357" height="26" fill="#fff"/></mask><mask id="satori_om-id-1-0-0"><rect x="23" y="51" width="357" height="15" fill="#fff"/></mask><mask id="satori_om-id-1-0-0-0"><rect x="23" y="51" width="329" height="15" fill="#fff"/></mask><g  ><path fill="#c0caf5" d="M25.6 63L23.8 63L23.8 54.3L25.6 54.3L25.6 57.8L29.4 57.8L29.4 54.3L31.2 54.3L31.2 63L29.4 63L29.4 59.3L25.6 59.3L25.6 63ZM35.1 55.8L32.4 55.8L32.4 54.3L39.5 54.3L39.5 55.8L36.9 55.8L36.9 63L35.1 63L35.1 55.8ZM42.5 63L40.8 63L40.8 54.3L43.5 54.3L44.9 58.3Q45.0 58.6 45.1 59.0Q45.2 59.4 45.4 60.0L45.4 60.0Q45.5 60.5 45.6 60.9L45.6 60.9Q45.7 60.5 45.8 60.0L45.8 60.0Q45.9 59.5 46.0 59.0Q46.1 58.6 46.2 58.3L46.2 58.3L47.6 54.3L50.4 54.3L50.4 63L48.6 63L48.6 58.9Q48.6 58.6 48.6 58.2Q48.6 57.7 48.6 57.2Q48.6 56.8 48.6 56.3L48.6 56.3Q48.6 56.0 48.6 55.8L48.6 55.8Q48.6 56.1 48.5 56.3L48.5 56.3Q48.4 56.8 48.2 57.3Q48.1 57.8 48.0 58.2Q47.9 58.6 47.8 58.9L47.8 58.9L46.3 63L44.8 63L43.3 58.9Q43.3 58.6 43.1 58.2Q43.0 57.8 42.9 57.3Q42.7 56.8 42.6 56.3L42.6 56.3Q42.5 56.1 42.5 55.9L42.5 55.9Q42.5 56.0 42.5 56.2L42.5 56.2Q42.5 56.7 42.5 57.2Q42.5 57.7 42.5 58.2Q42.5 58.6 42.5 58.9L42.5 58.9L42.5 63ZM57.5 63L51.9 63L51.9 54.3L53.7 54.3L53.7 61.5L57.5 61.5L57.5 63Z "/></g><mask id="satori_om-id-1-0-0-1"><rect x="352" y="51" width="28" height="15" fill="#fff"/></mask><g  ><path fill="#7aa2f7" d="M355.9 63.1L355.9 63.1Q354.9 63.1 354.2 62.8Q353.4 62.5 353.0 61.9Q352.6 61.3 352.6 60.6L352.6 60.6L354.4 60.6Q354.4 60.9 354.6 61.1Q354.8 61.4 355.1 61.5Q355.5 61.6 355.9 61.6L355.9 61.6Q356.3 61.6 356.6 61.5Q357.0 61.3 357.1 61.1Q357.3 60.8 357.3 60.4L357.3 60.4Q357.3 60.1 357.1 59.8Q356.9 59.5 356.6 59.4Q356.2 59.2 355.7 59.2L355.7 59.2L354.9 59.2L354.9 57.9L355.7 57.9Q356.1 57.9 356.5 57.7Q356.8 57.6 357.0 57.3Q357.1 57.1 357.1 56.7L357.1 56.7Q357.1 56.4 357.0 56.1Q356.8 55.9 356.5 55.7Q356.3 55.6 355.9 55.6L355.9 55.6Q355.5 55.6 355.2 55.7Q354.9 55.9 354.7 56.1Q354.5 56.3 354.5 56.7L354.5 56.7L352.8 56.7Q352.8 55.9 353.2 55.4Q353.6 54.8 354.3 54.5Q355.0 54.2 355.9 54.2L355.9 54.2Q356.8 54.2 357.5 54.5Q358.1 54.8 358.5 55.4Q358.9 55.9 358.9 56.6L358.9 56.6Q358.9 57.3 358.4 57.8Q358.0 58.3 357.2 58.5L357.2 58.5L357.2 58.5Q357.9 58.6 358.3 58.9Q358.8 59.2 359.0 59.6Q359.2 60.0 359.2 60.6L359.2 60.6Q359.2 61.3 358.8 61.9Q358.3 62.5 357.6 62.8Q356.8 63.1 355.9 63.1ZM363.8 63.1L363.8 63.1Q363.1 63.1 362.5 62.9Q361.8 62.7 361.4 62.2Q360.9 61.7 360.6 60.9Q360.3 60.0 360.3 58.8L360.3 58.8Q360.3 57.7 360.5 56.9Q360.8 56.0 361.3 55.4Q361.7 54.8 362.4 54.5Q363.0 54.2 363.8 54.2L363.8 54.2Q364.7 54.2 365.3 54.5Q366.0 54.8 366.4 55.4Q366.8 56.0 366.9 56.7L366.9 56.7L365.1 56.7Q365.0 56.2 364.7 56.0Q364.3 55.7 363.8 55.7L363.8 55.7Q363.2 55.7 362.8 56.0Q362.5 56.4 362.3 57.0Q362.1 57.6 362.1 58.5L362.1 58.5L362.1 58.5Q362.3 58.1 362.6 57.8Q363.0 57.6 363.4 57.4Q363.8 57.3 364.3 57.3L364.3 57.3Q365.1 57.3 365.7 57.6Q366.3 58.0 366.6 58.6Q367.0 59.3 367.0 60.1L367.0 60.1Q367.0 61.0 366.6 61.7Q366.2 62.3 365.4 62.7Q364.7 63.1 363.8 63.1ZM363.7 61.7L363.7 61.7Q364.2 61.7 364.5 61.5Q364.9 61.3 365.1 60.9Q365.3 60.6 365.3 60.1L365.3 60.1Q365.3 59.7 365.1 59.3Q364.9 59.0 364.5 58.8Q364.2 58.6 363.8 58.6L363.8 58.6Q363.4 58.6 363.2 58.7Q362.9 58.8 362.7 59.0Q362.5 59.3 362.4 59.5Q362.2 59.8 362.2 60.1L362.2 60.1Q362.2 60.6 362.4 60.9Q362.6 61.3 363.0 61.5Q363.3 61.7 363.7 61.7ZM370.5 58.4L370.5 58.4Q369.9 58.4 369.5 58.2Q369.1 57.9 368.8 57.5Q368.6 57.0 368.6 56.5L368.6 56.5L368.6 56.1Q368.6 55.5 368.9 55.1Q369.1 54.7 369.5 54.4Q369.9 54.1 370.5 54.1L370.5 54.1Q371.2 54.1 371.6 54.4Q372.0 54.7 372.2 55.1Q372.4 55.5 372.4 56.1L372.4 56.1L372.4 56.5Q372.4 57.0 372.2 57.5Q372.0 57.9 371.6 58.2Q371.1 58.4 370.5 58.4ZM370.5 57.4L370.5 57.4Q370.9 57.4 371.1 57.1Q371.2 56.8 371.2 56.5L371.2 56.5L371.2 56.1Q371.2 55.7 371.1 55.5Q370.9 55.2 370.5 55.2L370.5 55.2Q370.1 55.2 370.0 55.5Q369.8 55.8 369.8 56.1L369.8 56.1L369.8 56.5Q369.8 56.8 370.0 57.1Q370.1 57.4 370.5 57.4ZM376.7 63.2L376.7 63.2Q376.1 63.2 375.7 62.9Q375.3 62.6 375.0 62.2Q374.8 61.7 374.8 61.2L374.8 61.2L374.8 60.8Q374.8 60.2 375.1 59.8Q375.3 59.4 375.7 59.1Q376.1 58.8 376.7 58.8L376.7 58.8Q377.4 58.8 377.8 59.1Q378.2 59.4 378.4 59.8Q378.6 60.2 378.6 60.8L378.6 60.8L378.6 61.2Q378.6 61.8 378.4 62.2Q378.2 62.6 377.8 62.9Q377.3 63.2 376.7 63.2ZM376.7 62.1L376.7 62.1Q377.1 62.1 377.3 61.8Q377.4 61.5 377.4 61.2L377.4 61.2L377.4 60.8Q377.4 60.5 377.3 60.2Q377.1 59.9 376.7 59.9L376.7 59.9Q376.3 59.9 376.2 60.2Q376.1 60.5 376.1 60.8L376.1 60.8L376.1 61.2Q376.1 61.5 376.2 61.8Q376.3 62.1 376.7 62.1ZM371.2 63L370.0 63L376.0 54.3L377.2 54.3L371.2 63Z "/></g><mask id="satori_om-id-1-0-1"><rect x="23" y="71" width="357" height="6" fill="#fff"/></mask><path x="23" y="71" width="357" height="6" fill="#16161e" d="M26,71 h351 a3,3 0 0 1 3,3 v0 a3,3 0 0 1 -3,3 h-351 a3,3 0 0 1 -3,-3 v0 a3,3 0 0 1 3,-3"/><mask id="satori_om-id-1-0-1-0"><rect x="23" y="71" width="129" height="6" fill="#fff"/></mask><path x="23" y="71" width="129" height="6" fill="#7aa2f7" d="M26,71 h123 a3,3 0 0 1 3,3 v0 a3,3 0 0 1 -3,3 h-123 a3,3 0 0 1 -3,-3 v0 a3,3 0 0 1 3,-3"/><mask id="satori_om-id-1-1"><rect x="23" y="88" width="357" height="26" fill="#fff"/></mask><mask id="satori_om-id-1-1-0"><rect x="23" y="88" width="357" height="15" fill="#fff"/></mask><mask id="satori_om-id-1-1-0-0"><rect x="23" y="88" width="331" height="15" fill="#fff"/></mask><g  ><path fill="#c0caf5" d="M25.6 100L23.8 100L23.8 91.3L27.2 91.3Q28.2 91.3 28.9 91.6Q29.6 92.0 30.0 92.6Q30.3 93.3 30.3 94.1Q30.3 95.0 29.9 95.6Q29.6 96.2 28.9 96.5L28.9 96.5Q28.8 96.6 28.8 96.6L28.8 96.6L30.6 100L28.6 100L27.0 96.9L25.6 96.9L25.6 100ZM25.6 92.7L25.6 95.4L26.9 95.4Q27.4 95.4 27.8 95.3Q28.1 95.1 28.3 94.8Q28.5 94.5 28.5 94.1L28.5 94.1Q28.5 93.7 28.3 93.4Q28.1 93.1 27.8 92.9Q27.4 92.7 26.9 92.7L26.9 92.7L25.6 92.7ZM33.9 100.1L33.9 100.1Q33.2 100.1 32.7 99.8Q32.2 99.5 31.9 98.9Q31.6 98.4 31.6 97.6L31.6 97.6L31.6 93.4L33.4 93.4L33.4 97.3Q33.4 97.9 33.7 98.3Q34.0 98.6 34.6 98.6L34.6 98.6Q34.9 98.6 35.2 98.5Q35.5 98.3 35.7 98.0Q35.8 97.7 35.8 97.2L35.8 97.2L35.8 93.4L37.6 93.4L37.6 100L35.9 100L35.9 98.6Q35.7 99.3 35.2 99.6L35.2 99.6Q34.7 100.1 33.9 100.1ZM41.7 100.1L41.7 100.1Q40.9 100.1 40.3 99.9Q39.7 99.7 39.3 99.2Q38.9 98.8 38.8 98.2L38.8 98.2L40.4 97.9Q40.6 98.4 40.9 98.6Q41.2 98.8 41.8 98.8L41.8 98.8Q42.3 98.8 42.5 98.6Q42.8 98.5 42.8 98.2L42.8 98.2Q42.8 97.9 42.6 97.7Q42.4 97.6 42.0 97.5L42.0 97.5L40.9 97.3Q39.9 97.1 39.4 96.6Q39.0 96.1 39.0 95.4L39.0 95.4Q39.0 94.8 39.3 94.3Q39.7 93.9 40.3 93.6Q40.9 93.4 41.7 93.4L41.7 93.4Q42.5 93.4 43.1 93.6Q43.6 93.8 44.0 94.2Q44.3 94.6 44.5 95.1L44.5 95.1L42.9 95.4Q42.8 95.1 42.5 94.8Q42.2 94.6 41.8 94.6L41.8 94.6Q41.3 94.6 41.0 94.8Q40.7 95.0 40.7 95.3L40.7 95.3Q40.7 95.5 40.9 95.7Q41.1 95.9 41.6 96.0L41.6 96.0L42.8 96.2Q43.7 96.4 44.2 96.8Q44.6 97.3 44.6 98.0L44.6 98.0Q44.6 98.6 44.3 99.1Q43.9 99.6 43.2 99.9Q42.6 100.1 41.7 100.1ZM47.8 93.4L49.1 93.4L49.1 94.8L47.8 94.8L47.8 98.1Q47.8 98.4 48.0 98.5Q48.1 98.7 48.4 98.7L48.4 98.7Q48.5 98.7 48.7 98.7Q48.9 98.6 49.0 98.6L49.0 98.6L49.3 99.9Q49.0 100.0 48.7 100.1Q48.4 100.1 48.1 100.1L48.1 100.1Q47.1 100.1 46.6 99.6Q46.1 99.1 46.1 98.2L46.1 98.2L46.1 94.8L45.2 94.8L45.2 93.4L46.1 93.4L46.1 91.9L47.8 91.9L47.8 93.4Z "/></g><mask id="satori_om-id-1-1-0-1"><rect x="354" y="88" width="26" height="15" fill="#fff"/></mask><g  ><path fill="#bb9af7" d="M356.5 91.3L358.4 91.3L358.4 100L356.6 100L356.6 92.8L356.5 92.8L354.5 94.3L354.5 92.6L356.5 91.3ZM363.9 98.4L359.8 98.4L359.8 97.0L363.4 91.3L365.7 91.3L365.7 97.0L366.8 97.0L366.8 98.4L365.7 98.4L365.7 100L363.9 100L363.9 98.4ZM361.6 97.0L364.0 97.0L364.0 93.2L363.9 93.2L361.6 96.9L361.6 97.0ZM370.3 95.4L370.3 95.4Q369.7 95.4 369.2 95.2Q368.8 94.9 368.6 94.5Q368.4 94.0 368.4 93.5L368.4 93.5L368.4 93.1Q368.4 92.5 368.6 92.1Q368.8 91.7 369.2 91.4Q369.7 91.1 370.3 91.1L370.3 91.1Q370.9 91.1 371.3 91.4Q371.8 91.7 372.0 92.1Q372.2 92.5 372.2 93.1L372.2 93.1L372.2 93.5Q372.2 94.0 372.0 94.5Q371.7 94.9 371.3 95.2Q370.9 95.4 370.3 95.4ZM370.3 94.4L370.3 94.4Q370.7 94.4 370.8 94.1Q371.0 93.8 371.0 93.5L371.0 93.5L371.0 93.1Q371.0 92.7 370.8 92.5Q370.7 92.2 370.3 92.2L370.3 92.2Q369.9 92.2 369.7 92.5Q369.6 92.8 369.6 93.1L369.6 93.1L369.6 93.5Q369.6 93.8 369.7 94.1Q369.9 94.4 370.3 94.4ZM376.5 100.2L376.5 100.2Q375.9 100.2 375.4 99.9Q375.0 99.6 374.8 99.2Q374.6 98.7 374.6 98.2L374.6 98.2L374.6 97.8Q374.6 97.2 374.8 96.8Q375.0 96.4 375.5 96.1Q375.9 95.8 376.5 95.8L376.5 95.8Q377.1 95.8 377.5 96.1Q378.0 96.4 378.2 96.8Q378.4 97.2 378.4 97.8L378.4 97.8L378.4 98.2Q378.4 98.8 378.2 99.2Q377.9 99.6 377.5 99.9Q377.1 100.2 376.5 100.2ZM376.5 99.1L376.5 99.1Q376.9 99.1 377.0 98.8Q377.2 98.5 377.2 98.2L377.2 98.2L377.2 97.8Q377.2 97.5 377.0 97.2Q376.9 96.9 376.5 96.9L376.5 96.9Q376.1 96.9 375.9 97.2Q375.8 97.5 375.8 97.8L375.8 97.8L375.8 98.2Q375.8 98.5 375.9 98.8Q376.1 99.1 376.5 99.1ZM371.0 100L369.7 100L375.7 91.3L377.0 91.3L371.0 100Z "/></g><mask id="satori_om-id-1-1-1"><rect x="23" y="108" width="357" height="6" fill="#fff"/></mask><path x="23" y="108" width="357" height="6" fill="#16161e" d="M26,108 h351 a3,3 0 0 1 3,3 v0 a3,3 0 0 1 -3,3 h-351 a3,3 0 0 1 -3,-3 v0 a3,3 0 0 1 3,-3"/><mask id="satori_om-id-1-1-1-0"><rect x="23" y="108" width="50" height="6" fill="#fff"/></mask><path x="23" y="108" width="50" height="6" fill="#bb9af7" d="M26,108 h44 a3,3 0 0 1 3,3 v0 a3,3 0 0 1 -3,3 h-44 a3,3 0 0 1 -3,-3 v0 a3,3 0 0 1 3,-3"/><mask id="satori_om-id-1-2"><rect x="23" y="125" width="357" height="26" fill="#fff"/></mask><mask id="satori_om-id-1-2-0"><rect x="23" y="125" width="357" height="15" fill="#fff"/></mask><mask id="satori_om-id-1-2-0-0"><rect x="23" y="125" width="331" height="15" fill="#fff"/></mask><g  ><path fill="#c0caf5" d="M26.3 137.1L26.3 137.1Q25.0 137.1 24.2 136.4Q23.4 135.7 23.4 134.4L23.4 134.4L23.4 133.9L25.2 133.9L25.2 134.4Q25.2 135.0 25.5 135.4Q25.8 135.7 26.3 135.7L26.3 135.7Q26.8 135.7 27.1 135.4Q27.5 135.0 27.5 134.4L27.5 134.4L27.5 128.3L29.2 128.3L29.2 134.4Q29.2 135.7 28.4 136.4Q27.7 137.1 26.3 137.1ZM32.6 137.1L32.6 137.1Q32.0 137.1 31.5 136.9Q31.0 136.7 30.7 136.3Q30.4 135.8 30.4 135.2L30.4 135.2Q30.4 134.6 30.6 134.3Q30.8 133.9 31.2 133.7Q31.5 133.4 32.0 133.3Q32.4 133.2 32.9 133.2L32.9 133.2Q33.5 133.1 33.8 133.0Q34.2 133.0 34.3 132.9Q34.5 132.8 34.5 132.6L34.5 132.6L34.5 132.5Q34.5 132.3 34.4 132.1Q34.2 131.9 34.0 131.8Q33.8 131.7 33.4 131.7L33.4 131.7Q33.1 131.7 32.9 131.8Q32.6 131.9 32.4 132.0Q32.3 132.2 32.2 132.4L32.2 132.4L30.6 132.2Q30.8 131.6 31.2 131.2Q31.6 130.8 32.1 130.6Q32.7 130.4 33.5 130.4L33.5 130.4Q34.0 130.4 34.5 130.5Q35.0 130.6 35.4 130.9Q35.8 131.1 36.0 131.6Q36.2 132.0 36.2 132.6L36.2 132.6L36.2 137L34.6 137L34.6 136.1L34.5 136.1Q34.3 136.4 34.1 136.6Q33.8 136.9 33.5 137.0Q33.1 137.1 32.6 137.1ZM33.1 135.9L33.1 135.9Q33.5 135.9 33.8 135.7Q34.1 135.6 34.3 135.3Q34.5 135.0 34.5 134.7L34.5 134.7L34.5 133.9Q34.4 134.0 34.3 134.1Q34.1 134.1 33.9 134.1Q33.7 134.2 33.5 134.2Q33.3 134.2 33.2 134.2L33.2 134.2Q32.9 134.3 32.6 134.4Q32.4 134.5 32.2 134.7Q32.1 134.8 32.1 135.1L32.1 135.1Q32.1 135.4 32.2 135.5Q32.4 135.7 32.6 135.8Q32.8 135.9 33.1 135.9ZM41.6 137L39.6 137L37.2 130.4L39.0 130.4L40.1 133.8Q40.3 134.5 40.5 135.1L40.5 135.1Q40.5 135.4 40.6 135.6L40.6 135.6Q40.7 135.4 40.7 135.1L40.7 135.1Q40.9 134.5 41.1 133.8L41.1 133.8L42.1 130.4L44.0 130.4L41.6 137ZM46.8 137.1L46.8 137.1Q46.1 137.1 45.6 136.9Q45.1 136.7 44.9 136.3Q44.6 135.8 44.6 135.2L44.6 135.2Q44.6 134.6 44.8 134.3Q45.0 133.9 45.3 133.7Q45.7 133.4 46.1 133.3Q46.6 133.2 47.0 133.2L47.0 133.2Q47.6 133.1 48.0 133.0Q48.3 133.0 48.5 132.9Q48.6 132.8 48.6 132.6L48.6 132.6L48.6 132.5Q48.6 132.3 48.5 132.1Q48.4 131.9 48.2 131.8Q47.9 131.7 47.6 131.7L47.6 131.7Q47.3 131.7 47.0 131.8Q46.8 131.9 46.6 132.0Q46.4 132.2 46.4 132.4L46.4 132.4L44.8 132.2Q44.9 131.6 45.3 131.2Q45.7 130.8 46.3 130.6Q46.9 130.4 47.6 130.4L47.6 130.4Q48.1 130.4 48.6 130.5Q49.1 130.6 49.5 130.9Q49.9 131.1 50.2 131.6Q50.4 132.0 50.4 132.6L50.4 132.6L50.4 137L48.7 137L48.7 136.1L48.7 136.1Q48.5 136.4 48.2 136.6Q48.0 136.9 47.6 137.0Q47.2 137.1 46.8 137.1ZM47.3 135.9L47.3 135.9Q47.7 135.9 48.0 135.7Q48.3 135.6 48.5 135.3Q48.6 135.0 48.6 134.7L48.6 134.7L48.6 133.9Q48.6 134.0 48.4 134.1Q48.3 134.1 48.1 134.1Q47.9 134.2 47.7 134.2Q47.5 134.2 47.3 134.2L47.3 134.2Q47.0 134.3 46.8 134.4Q46.5 134.5 46.4 134.7Q46.3 134.8 46.3 135.1L46.3 135.1Q46.3 135.4 46.4 135.5Q46.5 135.7 46.7 135.8Q47.0 135.9 47.3 135.9ZM55.1 137.1L55.1 137.1Q54.1 137.1 53.3 136.8Q52.5 136.5 52.1 135.9Q51.7 135.2 51.6 134.3L51.6 134.3L53.4 134.3Q53.4 134.7 53.6 135.0Q53.9 135.3 54.3 135.5Q54.6 135.6 55.1 135.6L55.1 135.6Q55.6 135.6 56.0 135.5Q56.3 135.3 56.5 135.1Q56.7 134.8 56.7 134.5L56.7 134.5Q56.7 134.2 56.5 134.0Q56.3 133.8 56.0 133.7Q55.7 133.5 55.2 133.4L55.2 133.4L54.2 133.2Q53.1 132.9 52.5 132.3Q51.9 131.7 51.9 130.8L51.9 130.8Q51.9 130.0 52.3 129.4Q52.7 128.8 53.5 128.5Q54.2 128.2 55.2 128.2L55.2 128.2Q56.1 128.2 56.8 128.5Q57.6 128.8 58.0 129.4Q58.4 130.0 58.4 130.8L58.4 130.8L56.7 130.8Q56.6 130.2 56.2 129.9Q55.8 129.7 55.1 129.7L55.1 129.7Q54.7 129.7 54.4 129.8Q54.0 129.9 53.9 130.1Q53.7 130.4 53.7 130.7L53.7 130.7Q53.7 131.0 53.9 131.2Q54.1 131.4 54.4 131.5Q54.7 131.7 55.1 131.8L55.1 131.8L55.9 132.0Q56.4 132.1 56.9 132.3Q57.4 132.5 57.8 132.8Q58.1 133.1 58.3 133.5Q58.5 134.0 58.5 134.5L58.5 134.5Q58.5 135.3 58.1 135.9Q57.7 136.5 56.9 136.8Q56.2 137.1 55.1 137.1ZM62.7 137.1L62.7 137.1Q61.7 137.1 61.0 136.7Q60.3 136.3 59.9 135.5Q59.5 134.8 59.5 133.8L59.5 133.8Q59.5 132.7 59.9 132.0Q60.3 131.2 61.0 130.8Q61.7 130.4 62.7 130.4L62.7 130.4Q63.3 130.4 63.8 130.5Q64.2 130.7 64.6 131.0Q65.0 131.2 65.3 131.6Q65.5 132.0 65.6 132.5L65.6 132.5L64.0 132.9Q63.9 132.6 63.8 132.4Q63.7 132.2 63.5 132.0Q63.4 131.9 63.2 131.8Q62.9 131.8 62.7 131.8L62.7 131.8Q62.2 131.8 61.9 132.0Q61.6 132.3 61.4 132.7Q61.3 133.2 61.3 133.7L61.3 133.7Q61.3 134.3 61.4 134.8Q61.6 135.2 61.9 135.5Q62.2 135.7 62.7 135.7L62.7 135.7Q62.9 135.7 63.2 135.7Q63.4 135.6 63.5 135.4Q63.7 135.3 63.8 135.1Q63.9 134.9 64.0 134.6L64.0 134.6L65.6 134.9Q65.5 135.4 65.3 135.8Q65.0 136.2 64.6 136.5Q64.3 136.8 63.8 137.0Q63.3 137.1 62.7 137.1ZM68.6 137L66.8 137L66.8 130.4L68.5 130.4L68.5 131.6L68.6 131.6Q68.8 131.0 69.2 130.7Q69.6 130.4 70.2 130.4L70.2 130.4Q70.3 130.4 70.5 130.4Q70.6 130.4 70.7 130.4L70.7 130.4L70.7 132.0Q70.6 131.9 70.4 131.9Q70.2 131.9 70.0 131.9L70.0 131.9Q69.6 131.9 69.2 132.1Q68.9 132.2 68.7 132.6Q68.6 132.9 68.6 133.3L68.6 133.3L68.6 137ZM73.5 137L71.7 137L71.7 130.4L73.5 130.4L73.5 137ZM72.6 129.6L72.6 129.6Q72.2 129.6 71.9 129.3Q71.6 129.1 71.6 128.7L71.6 128.7Q71.6 128.3 71.9 128.1Q72.2 127.8 72.6 127.8L72.6 127.8Q73.0 127.8 73.3 128.0Q73.5 128.3 73.5 128.7L73.5 128.7Q73.5 129.1 73.3 129.3Q73.0 129.6 72.6 129.6ZM76.7 139.4L74.9 139.4L74.9 130.4L76.7 130.4L76.7 131.6L76.8 131.6Q76.9 131.3 77.1 131.0Q77.3 130.7 77.7 130.6Q78.1 130.4 78.6 130.4L78.6 130.4Q79.4 130.4 80.0 130.7Q80.6 131.1 80.9 131.9Q81.3 132.6 81.3 133.7L81.3 133.7Q81.3 134.8 80.9 135.6Q80.6 136.3 80.0 136.7Q79.4 137.1 78.6 137.1L78.6 137.1Q78.1 137.1 77.7 136.9Q77.3 136.7 77.1 136.5Q76.9 136.2 76.8 136.0L76.8 136.0L76.7 136.0L76.7 139.4ZM78.1 135.7L78.1 135.7Q78.5 135.7 78.8 135.4Q79.2 135.2 79.3 134.8Q79.5 134.3 79.5 133.7L79.5 133.7Q79.5 133.2 79.3 132.7Q79.2 132.3 78.9 132.0Q78.5 131.8 78.1 131.8L78.1 131.8Q77.6 131.8 77.3 132.0Q77.0 132.3 76.8 132.7Q76.7 133.1 76.7 133.7L76.7 133.7Q76.7 134.3 76.8 134.8Q77 135.2 77.3 135.5Q77.6 135.7 78.1 135.7ZM84.5 130.4L85.8 130.4L85.8 131.8L84.5 131.8L84.5 135.1Q84.5 135.4 84.7 135.5Q84.8 135.7 85.1 135.7L85.1 135.7Q85.2 135.7 85.4 135.7Q85.6 135.6 85.7 135.6L85.7 135.6L85.9 136.9Q85.7 137.0 85.4 137.1Q85.1 137.1 84.8 137.1L84.8 137.1Q83.8 137.1 83.3 136.6Q82.8 136.1 82.8 135.2L82.8 135.2L82.8 131.8L81.9 131.8L81.9 130.4L82.8 130.4L82.8 128.9L84.5 128.9L84.5 130.4Z "/></g><mask id="satori_om-id-1-2-0-1"><rect x="354" y="125" width="26" height="15" fill="#fff"/></mask><g  ><path fill="#ff9e64" d="M356.5 128.3L358.4 128.3L358.4 137L356.6 137L356.6 129.8L356.5 129.8L354.5 131.3L354.5 129.6L356.5 128.3ZM363.9 135.4L359.8 135.4L359.8 134.0L363.4 128.3L365.7 128.3L365.7 134.0L366.8 134.0L366.8 135.4L365.7 135.4L365.7 137L363.9 137L363.9 135.4ZM361.6 134.0L364.0 134.0L364.0 130.2L363.9 130.2L361.6 133.9L361.6 134.0ZM370.3 132.4L370.3 132.4Q369.7 132.4 369.2 132.2Q368.8 131.9 368.6 131.5Q368.4 131.0 368.4 130.5L368.4 130.5L368.4 130.1Q368.4 129.5 368.6 129.1Q368.8 128.7 369.2 128.4Q369.7 128.1 370.3 128.1L370.3 128.1Q370.9 128.1 371.3 128.4Q371.8 128.7 372.0 129.1Q372.2 129.5 372.2 130.1L372.2 130.1L372.2 130.5Q372.2 131.0 372.0 131.5Q371.7 131.9 371.3 132.2Q370.9 132.4 370.3 132.4ZM370.3 131.4L370.3 131.4Q370.7 131.4 370.8 131.1Q371.0 130.8 371.0 130.5L371.0 130.5L371.0 130.1Q371.0 129.7 370.8 129.5Q370.7 129.2 370.3 129.2L370.3 129.2Q369.9 129.2 369.7 129.5Q369.6 129.8 369.6 130.1L369.6 130.1L369.6 130.5Q369.6 130.8 369.7 131.1Q369.9 131.4 370.3 131.4ZM376.5 137.2L376.5 137.2Q375.9 137.2 375.4 136.9Q375.0 136.6 374.8 136.2Q374.6 135.7 374.6 135.2L374.6 135.2L374.6 134.8Q374.6 134.2 374.8 133.8Q375.0 133.4 375.5 133.1Q375.9 132.8 376.5 132.8L376.5 132.8Q377.1 132.8 377.5 133.1Q378.0 133.4 378.2 133.8Q378.4 134.2 378.4 134.8L378.4 134.8L378.4 135.2Q378.4 135.8 378.2 136.2Q377.9 136.6 377.5 136.9Q377.1 137.2 376.5 137.2ZM376.5 136.1L376.5 136.1Q376.9 136.1 377.0 135.8Q377.2 135.5 377.2 135.2L377.2 135.2L377.2 134.8Q377.2 134.5 377.0 134.2Q376.9 133.9 376.5 133.9L376.5 133.9Q376.1 133.9 375.9 134.2Q375.8 134.5 375.8 134.8L375.8 134.8L375.8 135.2Q375.8 135.5 375.9 135.8Q376.1 136.1 376.5 136.1ZM371.0 137L369.7 137L375.7 128.3L377.0 128.3L371.0 137Z "/></g><mask id="satori_om-id-1-2-1"><rect x="23" y="145" width="357" height="6" fill="#fff"/></mask><path x="23" y="145" width="357" height="6" fill="#16161e" d="M26,145 h351 a3,3 0 0 1 3,3 v0 a3,3 0 0 1 -3,3 h-351 a3,3 0 0 1 -3,-3 v0 a3,3 0 0 1 3,-3"/><mask id="satori_om-id-1-2-1-0"><rect x="23" y="145" width="50" height="6" fill="#fff"/></mask><path x="23" y="145" width="50" height="6" fill="#ff9e64" d="M26,145 h44 a3,3 0 0 1 3,3 v0 a3,3 0 0 1 -3,3 h-44 a3,3 0 0 1 -3,-3 v0 a3,3 0 0 1 3,-3"/><mask id="satori_om-id-1-3"><rect x="23" y="162" width="357" height="26" fill="#fff"/></mask><mask id="satori_om-id-1-3-0"><rect x="23" y="162" width="357" height="15" fill="#fff"/></mask><mask id="satori_om-id-1-3-0-0"><rect x="23" y="162" width="331" height="15" fill="#fff"/></mask><g  ><path fill="#c0caf5" d="M27.0 174.1L27.0 174.1Q25.9 174.1 25.2 173.8Q24.4 173.5 24.0 172.9Q23.5 172.2 23.5 171.3L23.5 171.3L25.2 171.3Q25.3 171.7 25.5 172.0Q25.7 172.3 26.1 172.5Q26.5 172.6 27.0 172.6L27.0 172.6Q27.5 172.6 27.8 172.5Q28.2 172.3 28.4 172.1Q28.6 171.8 28.6 171.5L28.6 171.5Q28.6 171.2 28.4 171.0Q28.2 170.8 27.9 170.7Q27.5 170.5 27.1 170.4L27.1 170.4L26.1 170.2Q25.0 169.9 24.4 169.3Q23.7 168.7 23.7 167.8L23.7 167.8Q23.7 167.0 24.2 166.4Q24.6 165.8 25.3 165.5Q26.1 165.2 27.0 165.2L27.0 165.2Q28.0 165.2 28.7 165.5Q29.4 165.8 29.8 166.4Q30.2 167.0 30.2 167.8L30.2 167.8L28.5 167.8Q28.5 167.2 28.1 166.9Q27.7 166.7 27.0 166.7L27.0 166.7Q26.5 166.7 26.2 166.8Q25.9 166.9 25.7 167.1Q25.6 167.4 25.6 167.7L25.6 167.7Q25.6 168.0 25.8 168.2Q26.0 168.4 26.3 168.5Q26.6 168.7 27.0 168.8L27.0 168.8L27.8 169.0Q28.3 169.1 28.8 169.3Q29.3 169.5 29.6 169.8Q30.0 170.1 30.2 170.5Q30.4 171.0 30.4 171.5L30.4 171.5Q30.4 172.3 30.0 172.9Q29.6 173.5 28.8 173.8Q28.1 174.1 27.0 174.1ZM33.4 170.2L33.4 170.2L33.4 174L31.6 174L31.6 165.3L33.3 165.3L33.3 168.7Q33.6 168.2 34.0 167.8L34.0 167.8Q34.5 167.4 35.3 167.4L35.3 167.4Q36.0 167.4 36.5 167.7Q37.0 168.0 37.3 168.5Q37.6 169.1 37.6 169.8L37.6 169.8L37.6 174L35.8 174L35.8 170.1Q35.8 169.5 35.5 169.2Q35.2 168.8 34.6 168.8L34.6 168.8Q34.3 168.8 34.0 169.0Q33.7 169.2 33.5 169.5Q33.4 169.8 33.4 170.2ZM42.0 174.1L42.0 174.1Q41.0 174.1 40.3 173.7Q39.6 173.3 39.2 172.6Q38.8 171.8 38.8 170.8L38.8 170.8Q38.8 169.7 39.2 169.0Q39.6 168.2 40.3 167.8Q41.0 167.4 41.9 167.4L41.9 167.4Q42.6 167.4 43.2 167.6Q43.7 167.8 44.1 168.2Q44.6 168.6 44.8 169.2Q45.0 169.8 45.0 170.7L45.0 170.7L45.0 171.2L40.5 171.2Q40.6 171.7 40.7 172.0L40.7 172.0Q40.9 172.4 41.3 172.6Q41.6 172.8 42.1 172.8L42.1 172.8Q42.4 172.8 42.6 172.7Q42.9 172.6 43.1 172.5Q43.2 172.3 43.3 172.0L43.3 172.0L44.9 172.3Q44.8 172.9 44.4 173.3Q44.0 173.7 43.4 173.9Q42.8 174.1 42.0 174.1ZM40.6 170.1L40.6 170.1L43.3 170.1Q43.3 169.8 43.2 169.5L43.2 169.5Q43.0 169.1 42.7 168.9Q42.4 168.7 42.0 168.7L42.0 168.7Q41.5 168.7 41.2 168.9Q40.9 169.1 40.7 169.5L40.7 169.5Q40.6 169.7 40.6 170.1ZM46.2 165.3L48.0 165.3L48.0 174L46.2 174L46.2 165.3ZM49.5 165.3L51.2 165.3L51.2 174L49.5 174L49.5 165.3Z "/></g><mask id="satori_om-id-1-3-0-1"><rect x="354" y="162" width="26" height="15" fill="#fff"/></mask><g  ><path fill="#9ece6a" d="M356.5 165.3L358.4 165.3L358.4 174L356.6 174L356.6 166.8L356.5 166.8L354.5 168.3L354.5 166.6L356.5 165.3ZM363.9 172.4L359.8 172.4L359.8 171.0L363.4 165.3L365.7 165.3L365.7 171.0L366.8 171.0L366.8 172.4L365.7 172.4L365.7 174L363.9 174L363.9 172.4ZM361.6 171.0L364.0 171.0L364.0 167.2L363.9 167.2L361.6 170.9L361.6 171.0ZM370.3 169.4L370.3 169.4Q369.7 169.4 369.2 169.2Q368.8 168.9 368.6 168.5Q368.4 168.0 368.4 167.5L368.4 167.5L368.4 167.1Q368.4 166.5 368.6 166.1Q368.8 165.7 369.2 165.4Q369.7 165.1 370.3 165.1L370.3 165.1Q370.9 165.1 371.3 165.4Q371.8 165.7 372.0 166.1Q372.2 166.5 372.2 167.1L372.2 167.1L372.2 167.5Q372.2 168.0 372.0 168.5Q371.7 168.9 371.3 169.2Q370.9 169.4 370.3 169.4ZM370.3 168.4L370.3 168.4Q370.7 168.4 370.8 168.1Q371.0 167.8 371.0 167.5L371.0 167.5L371.0 167.1Q371.0 166.7 370.8 166.5Q370.7 166.2 370.3 166.2L370.3 166.2Q369.9 166.2 369.7 166.5Q369.6 166.8 369.6 167.1L369.6 167.1L369.6 167.5Q369.6 167.8 369.7 168.1Q369.9 168.4 370.3 168.4ZM376.5 174.2L376.5 174.2Q375.9 174.2 375.4 173.9Q375.0 173.6 374.8 173.2Q374.6 172.7 374.6 172.2L374.6 172.2L374.6 171.8Q374.6 171.2 374.8 170.8Q375.0 170.4 375.5 170.1Q375.9 169.8 376.5 169.8L376.5 169.8Q377.1 169.8 377.5 170.1Q378.0 170.4 378.2 170.8Q378.4 171.2 378.4 171.8L378.4 171.8L378.4 172.2Q378.4 172.8 378.2 173.2Q377.9 173.6 377.5 173.9Q377.1 174.2 376.5 174.2ZM376.5 173.1L376.5 173.1Q376.9 173.1 377.0 172.8Q377.2 172.5 377.2 172.2L377.2 172.2L377.2 171.8Q377.2 171.5 377.0 171.2Q376.9 170.9 376.5 170.9L376.5 170.9Q376.1 170.9 375.9 171.2Q375.8 171.5 375.8 171.8L375.8 171.8L375.8 172.2Q375.8 172.5 375.9 172.8Q376.1 173.1 376.5 173.1ZM371.0 174L369.7 174L375.7 165.3L377.0 165.3L371.0 174Z "/></g><mask id="satori_om-id-1-3-1"><rect x="23" y="182" width="357" height="6" fill="#fff"/></mask><path x="23" y="182" width="357" height="6" fill="#16161e" d="M26,182 h351 a3,3 0 0 1 3,3 v0 a3,3 0 0 1 -3,3 h-351 a3,3 0 0 1 -3,-3 v0 a3,3 0 0 1 3,-3"/><mask id="satori_om-id-1-3-1-0"><rect x="23" y="182" width="50" height="6" fill="#fff"/></mask><path x="23" y="182" width="50" height="6" fill="#9ece6a" d="M26,182 h44 a3,3 0 0 1 3,3 v0 a3,3 0 0 1 -3,3 h-44 a3,3 0 0 1 -3,-3 v0 a3,3 0 0 1 3,-3"/><mask id="satori_om-id-1-4"><rect x="23" y="199" width="357" height="26" fill="#fff"/></mask><mask id="satori_om-id-1-4-0"><rect x="23" y="199" width="357" height="15" fill="#fff"/></mask><mask id="satori_om-id-1-4-0-0"><rect x="23" y="199" width="337" height="15" fill="#fff"/></mask><g  ><path fill="#c0caf5" d="M27.6 211.1L27.6 211.1Q26.5 211.1 25.5 210.6Q24.6 210.1 24.1 209.1Q23.6 208.1 23.6 206.6L23.6 206.6Q23.6 205.2 24.1 204.2Q24.6 203.2 25.5 202.7Q26.5 202.2 27.6 202.2L27.6 202.2Q28.8 202.2 29.7 202.7Q30.6 203.2 31.2 204.2Q31.7 205.2 31.7 206.6L31.7 206.6Q31.7 208.1 31.2 209.1L31.2 209.1Q30.8 209.7 30.3 210.1L30.3 210.1L31.6 211.7L29.9 211.7L29.2 210.8Q28.5 211.1 27.6 211.1ZM28.2 209.5L27.1 208L28.6 208L29.2 208.8Q29.5 208.6 29.6 208.2L29.6 208.2Q29.9 207.6 29.9 206.6L29.9 206.6Q29.9 205.7 29.6 205.0Q29.3 204.4 28.8 204.1Q28.3 203.7 27.6 203.7L27.6 203.7Q26.9 203.7 26.4 204.1Q25.9 204.4 25.6 205.1Q25.4 205.7 25.4 206.6L25.4 206.6Q25.4 207.6 25.6 208.2Q25.9 208.9 26.4 209.2Q26.9 209.5 27.6 209.5L27.6 209.5Q27.9 209.5 28.2 209.5L28.2 209.5ZM34.9 211L33.1 211L33.1 202.3L35.9 202.3L37.3 206.3Q37.4 206.6 37.5 207.0Q37.6 207.4 37.7 208.0L37.7 208.0Q37.8 208.5 37.9 208.9L37.9 208.9Q38.0 208.5 38.1 208.0L38.1 208.0Q38.3 207.5 38.4 207.0Q38.5 206.6 38.6 206.3L38.6 206.3L40.0 202.3L42.7 202.3L42.7 211L40.9 211L40.9 206.9Q40.9 206.6 40.9 206.2Q40.9 205.7 41.0 205.2Q41.0 204.8 41.0 204.3L41.0 204.3Q41.0 204.0 41.0 203.8L41.0 203.8Q40.9 204.1 40.9 204.3L40.9 204.3Q40.7 204.8 40.6 205.3Q40.4 205.8 40.3 206.2Q40.2 206.6 40.1 206.9L40.1 206.9L38.7 211L37.2 211L35.7 206.9Q35.6 206.6 35.5 206.2Q35.4 205.8 35.2 205.3Q35.1 204.8 34.9 204.3L34.9 204.3Q34.9 204.1 34.8 203.9L34.8 203.9Q34.8 204.0 34.8 204.2L34.8 204.2Q34.8 204.7 34.9 205.2Q34.9 205.7 34.9 206.2Q34.9 206.6 34.9 206.9L34.9 206.9L34.9 211ZM49.8 211L44.3 211L44.3 202.3L46.1 202.3L46.1 209.5L49.8 209.5L49.8 211Z "/></g><mask id="satori_om-id-1-4-0-1"><rect x="360" y="199" width="20" height="15" fill="#fff"/></mask><g  ><path fill="#e0af68" d="M362.9 211L361.0 211L364.7 203.8L364.7 203.7L360.4 203.7L360.4 202.3L366.5 202.3L366.5 203.8L362.9 211ZM370.0 206.4L370.0 206.4Q369.4 206.4 368.9 206.2Q368.5 205.9 368.3 205.5Q368.1 205.0 368.1 204.5L368.1 204.5L368.1 204.1Q368.1 203.5 368.3 203.1Q368.5 202.7 368.9 202.4Q369.4 202.1 370.0 202.1L370.0 202.1Q370.6 202.1 371.0 202.4Q371.4 202.7 371.7 203.1Q371.9 203.5 371.9 204.1L371.9 204.1L371.9 204.5Q371.9 205.0 371.7 205.5Q371.4 205.9 371.0 206.2Q370.6 206.4 370.0 206.4ZM370.0 205.4L370.0 205.4Q370.4 205.4 370.5 205.1Q370.7 204.8 370.7 204.5L370.7 204.5L370.7 204.1Q370.7 203.7 370.5 203.5Q370.4 203.2 370.0 203.2L370.0 203.2Q369.6 203.2 369.4 203.5Q369.3 203.8 369.3 204.1L369.3 204.1L369.3 204.5Q369.3 204.8 369.4 205.1Q369.6 205.4 370.0 205.4ZM376.2 211.2L376.2 211.2Q375.6 211.2 375.1 210.9Q374.7 210.6 374.5 210.2Q374.3 209.7 374.3 209.2L374.3 209.2L374.3 208.8Q374.3 208.2 374.5 207.8Q374.7 207.4 375.1 207.1Q375.6 206.8 376.2 206.8L376.2 206.8Q376.8 206.8 377.2 207.1Q377.6 207.4 377.9 207.8Q378.1 208.2 378.1 208.8L378.1 208.8L378.1 209.2Q378.1 209.8 377.9 210.2Q377.6 210.6 377.2 210.9Q376.8 211.2 376.2 211.2ZM376.2 210.1L376.2 210.1Q376.6 210.1 376.7 209.8Q376.9 209.5 376.9 209.2L376.9 209.2L376.9 208.8Q376.9 208.5 376.7 208.2Q376.6 207.9 376.2 207.9L376.2 207.9Q375.8 207.9 375.6 208.2Q375.5 208.5 375.5 208.8L375.5 208.8L375.5 209.2Q375.5 209.5 375.6 209.8Q375.8 210.1 376.2 210.1ZM370.6 211L369.4 211L375.4 202.3L376.6 202.3L370.6 211Z "/></g><mask id="satori_om-id-1-4-1"><rect x="23" y="219" width="357" height="6" fill="#fff"/></mask><path x="23" y="219" width="357" height="6" fill="#16161e" d="M26,219 h351 a3,3 0 0 1 3,3 v0 a3,3 0 0 1 -3,3 h-351 a3,3 0 0 1 -3,-3 v0 a3,3 0 0 1 3,-3"/><mask id="satori_om-id-1-4-1-0"><rect x="23" y="219" width="25" height="6" fill="#fff"/></mask><path x="23" y="219" width="25" height="6" fill="#e0af68" d="M26,219 h19 a3,3 0 0 1 3,3 v0 a3,3 0 0 1 -3,3 h-19 a3,3 0 0 1 -3,-3 v0 a3,3 0 0 1 3,-3"/></svg>